<svg xmlns="http://www.w3.org/2000/svg" xmlns:xlink="http://www.w3.org/1999/xlink" width="1024" zoomAndPan="magnify" viewBox="0 0 768 576" height="768" preserveAspectRatio="xMidYMid meet" version="1.0"><path fill="#c2d1ef" d="M 56.261719 138.066406 C 79.605469 102.066406 128.597656 81.128906 167.902344 68.4375 C 234.476562 46.960938 303.949219 33.988281 373.910156 31.71875 C 442.511719 29.5 516.121094 34.269531 578.488281 65.277344 C 717.664062 134.472656 774.96875 330.355469 700.816406 465.984375 C 686.0625 492.941406 661.949219 516.285156 631.96875 523.007812 C 604.035156 529.292969 574.421875 520.441406 550.222656 505.148438 C 525.882812 489.78125 508.316406 468.199219 487.664062 448.699219 C 466.902344 429.109375 445.984375 409.0625 424.613281 389.960938 C 376.09375 346.609375 317.636719 307.691406 251.585938 299.78125 C 221.433594 296.167969 190.84375 298.191406 160.671875 294.859375 C 107.839844 289.027344 47.601562 248.171875 42.957031 191.214844 C 41.261719 170.578125 46.554688 153.011719 56.261719 138.066406 Z M 56.261719 138.066406 " fill-opacity="1" fill-rule="nonzero"/><path fill="#c2d1ef" d="M 378.46875 561.261719 C 177.992188 561.261719 15.929688 551.746094 15.929688 539.996094 C 15.929688 528.230469 177.992188 518.730469 378.46875 518.730469 C 578.945312 518.730469 740.988281 528.230469 740.988281 539.996094 C 740.988281 551.746094 578.945312 561.261719 378.46875 561.261719 Z M 378.46875 561.261719 " fill-opacity="1" fill-rule="evenodd"/><path fill="#284486" d="M 318.300781 367.507812 C 318.300781 367.507812 406.421875 350.816406 423.988281 379.398438 C 441.550781 407.964844 388.261719 532.960938 388.261719 532.960938 L 274.476562 532.960938 C 274.476562 532.960938 262.132812 454.738281 253.488281 399.183594 Z M 318.300781 367.507812 " fill-opacity="1" fill-rule="nonzero"/><path fill="#1f3663" d="M 378.449219 379.398438 C 360.902344 350.816406 277.828125 376.238281 277.828125 376.238281 C 277.828125 376.238281 292.964844 243.507812 227.527344 248.257812 L 227.507812 248.117188 L 71.363281 248.117188 L 67.382812 337.949219 L 109.96875 532.960938 L 342.726562 532.960938 C 342.726562 532.960938 396.015625 407.964844 378.449219 379.398438 Z M 378.449219 379.398438 " fill-opacity="1" fill-rule="nonzero"/><path fill="#284486" d="M 387.964844 411.804688 C 387.964844 411.804688 294.816406 446.410156 208.757812 411.804688 L 199.710938 443.304688 C 199.710938 443.304688 315.613281 493.867188 390.183594 437.085938 Z M 387.964844 411.804688 " fill-opacity="1" fill-rule="nonzero"/><path fill="#363636" d="M 251.410156 528.699219 L 245.546875 544.046875 L 284.515625 561.261719 C 284.515625 561.261719 289.179688 548.449219 279.835938 544.308594 C 270.496094 540.171875 270.09375 539.507812 271.175781 536.296875 Z M 251.410156 528.699219 " fill-opacity="1" fill-rule="nonzero"/><path fill="#3d4a54" d="M 169.472656 376.570312 L 199.46875 415.191406 L 286.050781 419.46875 L 249.632812 529.503906 L 272.417969 538.214844 C 272.417969 538.214844 343.96875 416.730469 322.945312 387.394531 C 301.921875 358.046875 169.472656 376.570312 169.472656 376.570312 Z M 169.472656 376.570312 " fill-opacity="1" fill-rule="nonzero"/><path fill="#363636" d="M 371.363281 485.644531 L 380.285156 499.4375 L 417.175781 478.152344 C 417.175781 478.152344 409.597656 466.820312 400.746094 471.921875 C 391.894531 477.019531 391.109375 476.949219 389.171875 474.191406 Z M 371.363281 485.644531 " fill-opacity="1" fill-rule="nonzero"/><path fill="#53606b" d="M 158.140625 372.050781 C 158.140625 372.050781 139.964844 451.632812 309.796875 399.671875 L 370.785156 486.917969 L 390.671875 474.3125 C 390.671875 474.3125 354.09375 378.789062 324.65625 366.339844 C 295.21875 353.875 158.140625 372.050781 158.140625 372.050781 Z M 158.140625 372.050781 " fill-opacity="1" fill-rule="nonzero"/><path fill="#1b1b28" d="M 160.234375 184.808594 C 160.234375 184.808594 148.414062 179.222656 148.46875 164.152344 C 148.46875 164.152344 136 161.253906 148.972656 159.089844 C 148.972656 159.089844 139.894531 145.539062 152.359375 155.265625 C 152.359375 155.265625 154.894531 133.074219 171.359375 135.464844 C 171.359375 135.464844 185.484375 120.257812 198.246094 130.542969 C 198.246094 130.542969 218.046875 122.265625 223.160156 135.222656 C 223.160156 135.222656 238.613281 141.945312 231.523438 164.640625 C 224.417969 187.339844 176.246094 188.613281 176.246094 188.613281 Z M 160.234375 184.808594 " fill-opacity="1" fill-rule="nonzero"/><path fill="#e7ac8d" d="M 199.101562 237.695312 C 199.539062 231.128906 202.050781 224.703125 206.191406 219.570312 C 210.433594 214.316406 216.230469 210.472656 220.472656 205.234375 C 225.816406 198.636719 228.398438 190.027344 228.328125 181.542969 C 228.277344 173.058594 225.640625 164.695312 221.503906 157.308594 C 194.441406 147.773438 171.445312 150.078125 154.859375 171.050781 C 168.773438 191.199219 178.605469 217.5625 181.328125 241.902344 C 181.328125 241.902344 160.0625 260.148438 161.089844 277.871094 C 162.140625 295.589844 228.871094 290.894531 227.789062 272.507812 C 226.722656 254.125 199.101562 237.695312 199.101562 237.695312 Z M 199.101562 237.695312 " fill-opacity="1" fill-rule="nonzero"/><path fill="#1b1b28" d="M 205.703125 180.339844 C 205.824219 182.328125 204.777344 184.003906 203.363281 184.09375 C 201.964844 184.179688 200.726562 182.625 200.621094 180.636719 C 200.5 178.644531 201.546875 176.96875 202.941406 176.882812 C 204.355469 176.792969 205.578125 178.347656 205.703125 180.339844 Z M 205.703125 180.339844 " fill-opacity="1" fill-rule="nonzero"/><path fill="#ffffff" d="M 203.5 179.414062 C 203.554688 180.128906 203.1875 180.722656 202.679688 180.738281 C 202.191406 180.773438 201.753906 180.234375 201.71875 179.515625 C 201.667969 178.820312 202.035156 178.226562 202.542969 178.207031 C 203.03125 178.171875 203.464844 178.714844 203.5 179.414062 Z M 203.5 179.414062 " fill-opacity="1" fill-rule="nonzero"/><path fill="#1b1b28" d="M 220.839844 179.449219 C 220.945312 181.4375 219.914062 183.132812 218.5 183.203125 C 217.101562 183.289062 215.863281 181.734375 215.742188 179.746094 C 215.636719 177.753906 216.667969 176.078125 218.082031 175.992188 C 219.476562 175.921875 220.71875 177.457031 220.839844 179.449219 Z M 220.839844 179.449219 " fill-opacity="1" fill-rule="nonzero"/><path fill="#ffffff" d="M 218.640625 178.539062 C 218.675781 179.238281 218.308594 179.832031 217.820312 179.867188 C 217.328125 179.882812 216.894531 179.34375 216.839844 178.644531 C 216.804688 177.945312 217.171875 177.351562 217.660156 177.316406 C 218.167969 177.28125 218.605469 177.839844 218.640625 178.539062 Z M 218.640625 178.539062 " fill-opacity="1" fill-rule="nonzero"/><path fill="#1b1b28" d="M 203.589844 168.917969 C 203.398438 169.425781 202.976562 170.105469 202.507812 170.578125 C 202.015625 171.089844 201.441406 171.472656 200.777344 171.730469 C 200.113281 171.988281 199.40625 172.109375 198.648438 172.097656 C 197.878906 172.097656 197.109375 171.941406 196.34375 171.746094 L 196.308594 171.746094 C 195.957031 171.660156 195.609375 171.871094 195.523438 172.21875 C 195.433594 172.550781 195.609375 172.882812 195.925781 172.988281 C 196.746094 173.300781 197.617188 173.5625 198.527344 173.667969 C 199.457031 173.796875 200.394531 173.738281 201.335938 173.492188 C 202.28125 173.265625 203.167969 172.777344 203.9375 172.148438 C 204.707031 171.503906 205.300781 170.824219 205.804688 169.828125 C 206.121094 169.234375 205.894531 168.5 205.300781 168.203125 C 204.707031 167.890625 203.972656 168.117188 203.675781 168.710938 C 203.652344 168.757812 203.628906 168.804688 203.605469 168.847656 Z M 203.589844 168.917969 " fill-opacity="1" fill-rule="nonzero"/><path fill="#1b1b28" d="M 214.796875 169.285156 C 215.164062 170.230469 215.617188 170.890625 216.265625 171.554688 C 216.894531 172.183594 217.695312 172.691406 218.550781 172.917969 C 219.4375 173.140625 220.292969 173.171875 221.117188 173.023438 C 221.519531 172.953125 221.90625 172.832031 222.289062 172.726562 L 223.386719 172.273438 C 223.71875 172.132812 223.878906 171.746094 223.738281 171.417969 C 223.617188 171.121094 223.285156 170.960938 222.96875 171.050781 L 222.898438 171.066406 L 221.90625 171.328125 C 221.574219 171.363281 221.257812 171.449219 220.925781 171.449219 C 220.285156 171.472656 219.699219 171.375 219.164062 171.152344 C 218.628906 170.933594 218.183594 170.589844 217.835938 170.125 C 217.503906 169.6875 217.207031 169.058594 217.101562 168.621094 L 217.085938 168.570312 C 216.945312 167.925781 216.28125 167.523438 215.636719 167.679688 C 214.992188 167.820312 214.589844 168.484375 214.746094 169.128906 C 214.757812 169.1875 214.773438 169.238281 214.796875 169.285156 Z M 214.796875 169.285156 " fill-opacity="1" fill-rule="nonzero"/><path fill="#bc7f64" d="M 213.070312 190.429688 C 212.71875 190.449219 212.40625 190.1875 212.371094 189.835938 C 212.335938 189.46875 212.597656 189.15625 212.964844 189.121094 C 213.261719 189.085938 213.558594 188.894531 213.769531 188.578125 C 213.960938 188.28125 214.011719 187.933594 213.925781 187.636719 C 213.839844 187.355469 213.574219 187.113281 213.226562 186.972656 C 212.894531 186.851562 212.546875 186.867188 212.285156 187.023438 C 211.96875 187.199219 211.566406 187.09375 211.375 186.78125 C 211.203125 186.464844 211.304688 186.066406 211.621094 185.890625 C 212.230469 185.523438 212.984375 185.488281 213.699219 185.75 C 214.414062 186.03125 214.957031 186.570312 215.164062 187.234375 C 215.390625 187.898438 215.269531 188.667969 214.867188 189.296875 C 214.449219 189.941406 213.804688 190.359375 213.105469 190.429688 C 213.09375 190.429688 213.082031 190.429688 213.070312 190.429688 Z M 213.070312 190.429688 " fill-opacity="1" fill-rule="nonzero"/><path fill="#c66b6b" d="M 214.464844 197.832031 C 214.28125 198.34375 213.867188 198.628906 213.226562 198.6875 C 212.925781 198.722656 212.574219 198.722656 212.179688 198.6875 C 210.644531 198.53125 208.496094 197.816406 206.050781 197.011719 C 203.152344 196.070312 200.601562 195.285156 199.433594 194.324219 C 199.152344 194.089844 198.949219 193.839844 198.824219 193.574219 C 198.695312 193.316406 198.675781 193.039062 198.769531 192.734375 C 199.03125 191.929688 200.097656 191.109375 201.5625 190.585938 C 202.074219 190.425781 202.621094 190.296875 203.203125 190.203125 C 204.707031 189.941406 206.453125 189.976562 208.164062 190.535156 C 210.539062 191.304688 212.371094 192.875 213.4375 194.429688 C 213.609375 194.695312 213.773438 194.957031 213.925781 195.214844 C 214.464844 196.226562 214.675781 197.1875 214.464844 197.832031 Z M 214.464844 197.832031 " fill-opacity="1" fill-rule="nonzero"/><path fill="#ffffff" d="M 213.925781 195.214844 C 211.988281 195.195312 209.996094 194.863281 208.144531 194.234375 C 205.703125 193.414062 203.570312 192.195312 201.5625 190.585938 C 202.074219 190.425781 202.621094 190.296875 203.203125 190.203125 C 204.707031 189.941406 206.453125 189.976562 208.164062 190.535156 C 210.539062 191.304688 212.371094 192.875 213.4375 194.429688 C 213.609375 194.695312 213.773438 194.957031 213.925781 195.214844 Z M 213.925781 195.214844 " fill-opacity="1" fill-rule="nonzero"/><path fill="#e58f8f" d="M 212.179688 198.6875 C 210.644531 198.53125 208.496094 197.816406 206.050781 197.011719 C 203.152344 196.070312 200.601562 195.285156 199.433594 194.324219 C 201.652344 194.113281 203.867188 194.289062 206.015625 195.023438 C 208.304688 195.808594 210.414062 197.011719 212.179688 198.6875 Z M 212.179688 198.6875 " fill-opacity="1" fill-rule="nonzero"/><path fill="#1b1b28" d="M 169.296875 188.769531 C 169.296875 188.769531 173.941406 181.28125 169.226562 169.390625 C 169.226562 169.390625 179.894531 175.710938 173.382812 167.136719 C 173.382812 167.136719 186.144531 172.410156 178.585938 164.832031 C 178.585938 164.832031 194.894531 169.566406 193.199219 160.765625 C 193.199219 160.765625 210.730469 168.027344 209.054688 159.839844 C 209.054688 159.839844 227.003906 167.347656 224.453125 160.417969 C 221.90625 153.46875 220.507812 152.488281 220.507812 152.488281 C 220.507812 152.488281 182.828125 134.367188 152.097656 169.042969 C 152.097656 169.042969 162.503906 185.855469 164.671875 187.914062 C 166.816406 189.976562 169.296875 188.769531 169.296875 188.769531 Z M 169.296875 188.769531 " fill-opacity="1" fill-rule="nonzero"/><path fill="#1b1b28" d="M 173.226562 201.046875 C 173.226562 201.046875 176.996094 212.8125 175.582031 215.015625 C 174.167969 217.214844 168.597656 202.039062 168.597656 202.039062 Z M 173.226562 201.046875 " fill-opacity="1" fill-rule="nonzero"/><path fill="#e7ac8d" d="M 175.828125 201.675781 C 173.171875 205.21875 166.171875 204.484375 160.199219 200.015625 C 154.210938 195.546875 151.523438 189.050781 154.175781 185.488281 C 156.832031 181.945312 163.832031 182.679688 169.804688 187.148438 C 175.792969 191.617188 178.480469 198.113281 175.828125 201.675781 Z M 175.828125 201.675781 " fill-opacity="1" fill-rule="nonzero"/><path fill="#bc7f64" d="M 167.253906 198.582031 C 166.519531 198.617188 165.824219 198.460938 165.367188 198.355469 C 165.019531 198.285156 164.792969 197.9375 164.878906 197.570312 C 164.96875 197.222656 165.316406 197.011719 165.664062 197.082031 C 166.554688 197.292969 167.550781 197.429688 168.074219 196.941406 C 168.597656 196.4375 168.425781 195.441406 168.371094 195.144531 C 168.003906 193.554688 166.816406 192.019531 165.105469 190.9375 C 163.484375 189.90625 161.5625 189.328125 159.730469 188.824219 C 159.378906 188.71875 159.171875 188.371094 159.277344 188.019531 C 159.363281 187.671875 159.730469 187.460938 160.078125 187.566406 C 162 188.089844 164.023438 188.703125 165.804688 189.820312 C 167.832031 191.109375 169.210938 192.890625 169.648438 194.863281 C 169.925781 196.121094 169.679688 197.222656 168.984375 197.886719 C 168.476562 198.375 167.847656 198.550781 167.253906 198.582031 Z M 167.253906 198.582031 " fill-opacity="1" fill-rule="nonzero"/><path fill="#e7ac8d" d="M 265.589844 272.667969 L 287.761719 280.035156 L 318.40625 237.957031 L 329.109375 246.492188 C 329.109375 246.492188 310.339844 301.023438 292.582031 303.257812 C 274.808594 305.492188 256.039062 293.113281 256.039062 293.113281 Z M 265.589844 272.667969 " fill-opacity="1" fill-rule="nonzero"/><path fill="#e7ac8d" d="M 343.355469 237.902344 C 343.355469 237.902344 354.863281 239.351562 354.722656 241.882812 C 354.582031 244.433594 349.800781 241.882812 344.421875 243.230469 C 339.027344 244.554688 326.140625 251.242188 319.714844 244.679688 C 313.273438 238.097656 325.828125 229.332031 325.828125 229.332031 C 325.828125 229.332031 321.304688 218.191406 323.03125 216.566406 C 324.742188 214.945312 330.226562 227.042969 330.226562 227.042969 C 330.226562 227.042969 334.554688 209.390625 337.226562 209.757812 C 339.898438 210.125 336.441406 227.53125 336.441406 227.53125 C 336.441406 227.53125 344.402344 208.5 347.265625 209.023438 C 350.113281 209.53125 341.105469 231.234375 341.105469 231.234375 C 341.105469 231.234375 354.511719 217.789062 356.519531 219.03125 C 358.511719 220.269531 343.355469 237.902344 343.355469 237.902344 Z M 343.355469 237.902344 " fill-opacity="1" fill-rule="nonzero"/><path fill="#ff5a45" d="M 181.152344 240.453125 C 181.152344 240.453125 195.90625 251.714844 199.710938 237.9375 C 199.710938 237.9375 232.046875 247.175781 236.570312 251.976562 C 238.945312 254.492188 237.546875 285.359375 245.351562 313.296875 C 252.390625 338.5625 268.820312 361.277344 268.820312 361.277344 C 268.820312 361.277344 223.929688 401.714844 156.867188 384.304688 C 156.867188 384.304688 149.515625 358.882812 146.722656 330.511719 C 143.769531 300.601562 145.394531 267.550781 147.488281 262.925781 C 151.539062 253.878906 181.152344 240.453125 181.152344 240.453125 Z M 181.152344 240.453125 " fill-opacity="1" fill-rule="nonzero"/><path fill="#ff5a45" d="M 149.480469 260.042969 C 149.480469 260.042969 137.957031 274.082031 130.449219 298.351562 L 154.859375 308.234375 L 164.496094 271.390625 Z M 149.480469 260.042969 " fill-opacity="1" fill-rule="nonzero"/><path fill="#ff5a45" d="M 234.617188 250.527344 C 234.617188 250.527344 256.457031 264.566406 266.113281 271.550781 L 253.839844 297.023438 L 225.867188 283.003906 Z M 234.617188 250.527344 " fill-opacity="1" fill-rule="nonzero"/><path fill="#cc392e" d="M 239.207031 286.023438 C 238.910156 286.023438 238.648438 285.832031 238.578125 285.550781 C 235.90625 276 231.875 266.921875 226.617188 258.523438 C 226.425781 258.210938 226.53125 257.808594 226.828125 257.617188 C 227.140625 257.425781 227.542969 257.511719 227.734375 257.824219 C 233.0625 266.328125 237.128906 275.53125 239.835938 285.203125 C 239.941406 285.550781 239.730469 285.902344 239.382812 286.007812 C 239.324219 286.019531 239.265625 286.023438 239.207031 286.023438 Z M 239.207031 286.023438 " fill-opacity="1" fill-rule="nonzero"/><path fill="#cc392e" d="M 157.878906 308.949219 C 157.808594 308.949219 157.738281 308.929688 157.667969 308.894531 C 157.320312 308.773438 157.144531 308.40625 157.265625 308.058594 L 167.796875 279.441406 C 167.917969 279.109375 168.300781 278.933594 168.632812 279.058594 C 168.984375 279.179688 169.15625 279.5625 169.019531 279.894531 L 158.507812 308.511719 C 158.402344 308.773438 158.15625 308.949219 157.878906 308.949219 Z M 157.878906 308.949219 " fill-opacity="1" fill-rule="nonzero"/><path fill="#284486" d="M 118.261719 376.222656 C 118.261719 376.222656 134.183594 236.785156 62.949219 248.832031 C 8.160156 258.105469 69.375 532.960938 69.375 532.960938 L 183.160156 532.960938 C 183.160156 532.960938 236.449219 407.964844 218.902344 379.398438 C 201.335938 350.816406 118.261719 376.222656 118.261719 376.222656 Z M 118.261719 376.222656 " fill-opacity="1" fill-rule="nonzero"/><path fill="#e7ac8d" d="M 153.355469 307.65625 L 147.910156 330.390625 L 191.59375 358.675781 L 182.496094 369.902344 C 182.496094 369.902344 129.4375 354.710938 126.242188 337.09375 C 123.046875 319.476562 133.101562 299.433594 133.101562 299.433594 Z M 153.355469 307.65625 " fill-opacity="1" fill-rule="nonzero"/><path fill="#e9ae8f" d="M 180.890625 362.917969 C 180.890625 362.917969 176.195312 376.867188 204.550781 372.484375 C 204.550781 372.484375 206.242188 375.785156 208.058594 375.769531 C 209.875 375.75 221.574219 366.042969 217.261719 360 C 217.261719 360 220.4375 362.289062 222.21875 360.769531 C 224 359.25 214.902344 349.542969 211.445312 349.105469 C 207.988281 348.6875 183.351562 350.992188 180.890625 362.917969 Z M 180.890625 362.917969 " fill-opacity="1" fill-rule="nonzero"/><path fill="#ffffff" d="M 309.011719 84.359375 C 274.195312 84.359375 246 100.5625 246 120.539062 C 246 130.855469 253.523438 140.164062 265.589844 146.746094 C 265.34375 150.203125 263.789062 158.128906 255.128906 162.164062 C 255.128906 162.164062 270.179688 163.382812 276.535156 151.546875 C 286.015625 154.828125 297.121094 156.714844 309.011719 156.714844 C 343.808594 156.714844 372.007812 140.511719 372.007812 120.539062 C 372.007812 100.5625 343.808594 84.359375 309.011719 84.359375 Z M 309.011719 84.359375 " fill-opacity="1" fill-rule="nonzero"/><path fill="#284486" d="M 597.679688 294.699219 C 595.898438 294.699219 594.117188 294.054688 592.703125 292.796875 L 575.417969 277.398438 C 574.371094 276.472656 573.007812 275.964844 571.609375 275.964844 L 452.148438 275.964844 C 448.027344 275.964844 444.675781 272.597656 444.675781 268.476562 L 444.675781 105.695312 C 444.675781 101.574219 448.027344 98.222656 452.148438 98.222656 L 555.582031 98.222656 L 555.582031 99.96875 L 452.148438 99.96875 C 448.988281 99.96875 446.421875 102.535156 446.421875 105.695312 L 446.421875 268.476562 C 446.421875 271.636719 448.988281 274.21875 452.148438 274.21875 L 571.609375 274.21875 C 573.445312 274.21875 575.207031 274.882812 576.570312 276.089844 L 593.855469 291.488281 C 596.039062 293.425781 599.320312 293.425781 601.503906 291.488281 L 618.789062 276.089844 C 620.148438 274.882812 621.914062 274.21875 623.746094 274.21875 L 743.207031 274.21875 C 746.367188 274.21875 748.933594 271.636719 748.933594 268.476562 L 748.933594 105.695312 C 748.933594 102.535156 746.367188 99.96875 743.207031 99.96875 L 621.773438 99.96875 L 621.773438 98.222656 L 743.207031 98.222656 C 747.328125 98.222656 750.679688 101.574219 750.679688 105.695312 L 750.679688 268.476562 C 750.679688 272.597656 747.328125 275.964844 743.207031 275.964844 L 623.746094 275.964844 C 622.347656 275.964844 620.988281 276.472656 619.941406 277.398438 L 602.65625 292.796875 C 601.242188 294.054688 599.460938 294.699219 597.679688 294.699219 Z M 597.679688 294.699219 " fill-opacity="1" fill-rule="nonzero"/><path fill="#284486" d="M 682.027344 265.125 C 678.414062 265.125 675.480469 262.207031 675.480469 258.59375 C 675.480469 254.980469 678.414062 252.046875 682.027344 252.046875 C 685.640625 252.046875 688.558594 254.980469 688.558594 258.59375 C 688.558594 262.207031 685.640625 265.125 682.027344 265.125 Z M 682.027344 265.125 " fill-opacity="1" fill-rule="evenodd"/><path fill="#284486" d="M 704.445312 263.203125 C 701.898438 263.203125 699.820312 261.144531 699.820312 258.59375 C 699.820312 256.027344 701.898438 253.96875 704.445312 253.96875 C 706.996094 253.96875 709.074219 256.027344 709.074219 258.59375 C 709.074219 261.144531 706.996094 263.203125 704.445312 263.203125 Z M 704.445312 263.203125 " fill-opacity="1" fill-rule="evenodd"/><path fill="#284486" d="M 728.679688 258.59375 C 728.679688 261.144531 726.621094 263.203125 724.070312 263.203125 C 721.503906 263.203125 719.445312 261.144531 719.445312 258.59375 C 719.445312 256.027344 721.503906 253.96875 724.070312 253.96875 C 726.621094 253.96875 728.679688 256.027344 728.679688 258.59375 Z M 728.679688 258.59375 " fill-opacity="1" fill-rule="nonzero"/><path fill="#284486" d="M 457.738281 265.070312 L 527.140625 265.070312 L 527.140625 266.816406 L 457.738281 266.816406 Z M 457.738281 265.070312 " fill-opacity="1" fill-rule="evenodd"/><path fill="#284486" d="M 457.738281 257.652344 L 527.140625 257.652344 L 527.140625 259.398438 L 457.738281 259.398438 Z M 457.738281 257.652344 " fill-opacity="1" fill-rule="evenodd"/><path fill="#3d4a54" d="M 652.03125 275.09375 L 623.746094 275.09375 C 622.121094 275.09375 620.570312 275.6875 619.363281 276.753906 L 611.4375 283.804688 L 602.078125 292.152344 C 599.5625 294.386719 595.792969 294.386719 593.277344 292.152344 L 583.921875 283.804688 L 575.992188 276.753906 C 574.789062 275.6875 573.234375 275.09375 571.609375 275.09375 L 545.472656 275.09375 C 546.015625 268.6875 546.625 262.226562 547.042969 257.753906 C 547.160156 256.613281 547.261719 255.621094 547.339844 254.769531 C 547.515625 252.972656 547.621094 251.925781 547.621094 251.925781 L 583.429688 250.773438 L 601.117188 250.195312 L 649.117188 248.660156 C 649.550781 250.5625 649.917969 252.867188 650.269531 255.433594 C 650.359375 256.074219 650.441406 256.742188 650.511719 257.441406 C 651.175781 262.90625 651.664062 269.261719 652.03125 275.09375 Z M 652.03125 275.09375 " fill-opacity="1" fill-rule="nonzero"/><path fill="#1b1b28" d="M 621.425781 33.429688 C 619.992188 27.335938 614.195312 22.953125 608.347656 20.980469 C 602.496094 19.007812 596.351562 18.832031 590.363281 17.558594 C 581.914062 15.761719 573.777344 11.78125 565.238281 10.75 C 556.296875 9.667969 546.90625 12.25 541.195312 18.886719 C 534.769531 26.339844 533.898438 37.726562 536.324219 47.921875 C 538.75 58.101562 544.773438 68.261719 554.152344 72.785156 C 560.191406 75.699219 566.949219 75.996094 573.390625 75.613281 C 586.292969 74.863281 598.847656 71.5625 610.230469 65.957031 L 615.277344 59.148438 C 615.800781 54.714844 617.410156 50.3125 619.207031 46.332031 C 621.003906 42.351562 622.453125 37.882812 621.425781 33.429688 Z M 621.425781 33.429688 " fill-opacity="1" fill-rule="nonzero"/><path fill="#e7ac8d" d="M 585.753906 117.445312 C 584.285156 111.023438 580.792969 105.066406 575.921875 100.652344 C 570.914062 96.109375 564.574219 93.230469 559.5625 88.707031 C 553.261719 83.015625 549.367188 74.933594 548.109375 66.535156 C 546.851562 58.152344 548.128906 49.476562 551.078125 41.53125 C 576.324219 27.894531 599.40625 26.585938 619.050781 44.707031 C 608.433594 66.777344 603.335938 91.9375 604.4375 116.398438 C 604.4375 116.398438 627.796875 133.527344 629.542969 151.199219 C 631.289062 168.867188 564.644531 174.628906 562.828125 156.296875 C 561.03125 137.980469 585.753906 117.449219 585.753906 117.449219 Z M 585.753906 117.445312 " fill-opacity="1" fill-rule="nonzero"/><path fill="#1b1b28" d="M 570.265625 61.820312 C 570.476562 63.792969 571.769531 65.292969 573.164062 65.15625 C 574.5625 65.015625 575.539062 63.304688 575.347656 61.3125 C 575.15625 59.324219 573.863281 57.839844 572.449219 57.976562 C 571.050781 58.101562 570.074219 59.828125 570.265625 61.820312 Z M 570.265625 61.820312 " fill-opacity="1" fill-rule="nonzero"/><path fill="#ffffff" d="M 572.292969 60.5625 C 572.363281 61.261719 572.816406 61.800781 573.320312 61.75 C 573.8125 61.699219 574.160156 61.085938 574.089844 60.386719 C 574.019531 59.691406 573.566406 59.164062 573.058594 59.21875 C 572.570312 59.253906 572.222656 59.863281 572.292969 60.5625 Z M 572.292969 60.5625 " fill-opacity="1" fill-rule="nonzero"/><path fill="#1b1b28" d="M 555.199219 63.304688 C 555.390625 65.292969 556.683594 66.777344 558.078125 66.636719 C 559.476562 66.515625 560.453125 64.789062 560.261719 62.796875 C 560.070312 60.824219 558.777344 59.324219 557.382812 59.460938 C 555.964844 59.601562 554.988281 61.3125 555.199219 63.304688 Z M 555.199219 63.304688 " fill-opacity="1" fill-rule="nonzero"/><path fill="#ffffff" d="M 557.207031 62.0625 C 557.277344 62.761719 557.746094 63.285156 558.238281 63.234375 C 558.726562 63.179688 559.074219 62.589844 559.003906 61.890625 C 558.933594 61.171875 558.480469 60.648438 557.972656 60.703125 C 557.484375 60.753906 557.136719 61.347656 557.207031 62.0625 Z M 557.207031 62.0625 " fill-opacity="1" fill-rule="nonzero"/><path fill="#1b1b28" d="M 570.476562 54.644531 C 570.773438 54.191406 571.347656 53.632812 571.925781 53.28125 C 572.519531 52.898438 573.164062 52.660156 573.863281 52.566406 C 574.574219 52.484375 575.292969 52.535156 576.027344 52.722656 C 576.761719 52.898438 577.476562 53.230469 578.175781 53.597656 L 578.210938 53.613281 C 578.523438 53.769531 578.925781 53.648438 579.101562 53.335938 C 579.257812 53.039062 579.152344 52.671875 578.890625 52.496094 C 578.15625 51.988281 577.390625 51.519531 576.515625 51.203125 C 575.644531 50.867188 574.71875 50.703125 573.742188 50.714844 C 572.761719 50.714844 571.785156 50.976562 570.914062 51.394531 C 570.003906 51.851562 569.269531 52.375 568.519531 53.230469 C 568.082031 53.71875 568.136719 54.488281 568.644531 54.921875 C 569.148438 55.359375 569.898438 55.308594 570.355469 54.816406 C 570.378906 54.773438 570.398438 54.730469 570.421875 54.695312 Z M 570.476562 54.644531 " fill-opacity="1" fill-rule="nonzero"/><path fill="#1b1b28" d="M 560.15625 54.121094 C 559.40625 53.4375 558.707031 53.054688 557.851562 52.757812 C 556.996094 52.460938 556.070312 52.355469 555.179688 52.53125 C 554.296875 52.730469 553.515625 53.078125 552.839844 53.578125 C 552.507812 53.824219 552.230469 54.121094 551.914062 54.382812 L 551.128906 55.253906 C 550.902344 55.535156 550.921875 55.9375 551.199219 56.179688 C 551.445312 56.40625 551.8125 56.390625 552.054688 56.179688 L 552.125 56.128906 L 552.875 55.445312 C 553.15625 55.273438 553.417969 55.0625 553.695312 54.90625 C 554.265625 54.601562 554.84375 54.429688 555.425781 54.382812 C 555.996094 54.359375 556.542969 54.476562 557.066406 54.730469 C 557.554688 54.957031 558.097656 55.394531 558.394531 55.761719 L 558.410156 55.796875 C 558.847656 56.300781 559.597656 56.371094 560.121094 55.953125 C 560.628906 55.535156 560.699219 54.765625 560.277344 54.242188 C 560.246094 54.207031 560.203125 54.167969 560.15625 54.121094 Z M 560.15625 54.121094 " fill-opacity="1" fill-rule="nonzero"/><path fill="#bc7f64" d="M 564.574219 72.925781 C 564.921875 72.890625 565.183594 72.59375 565.167969 72.242188 C 565.152344 71.875 564.835938 71.597656 564.46875 71.613281 C 564.171875 71.632812 563.839844 71.492188 563.597656 71.214844 C 563.351562 70.953125 563.246094 70.601562 563.300781 70.304688 C 563.359375 69.992188 563.550781 69.742188 563.875 69.554688 C 564.191406 69.363281 564.539062 69.328125 564.820312 69.433594 C 565.152344 69.570312 565.535156 69.398438 565.675781 69.066406 C 565.796875 68.734375 565.640625 68.351562 565.308594 68.226562 C 564.644531 67.964844 563.894531 68.035156 563.230469 68.402344 C 562.550781 68.785156 562.113281 69.398438 562.007812 70.097656 C 561.886719 70.792969 562.113281 71.527344 562.636719 72.105469 C 563.144531 72.664062 563.839844 72.976562 564.539062 72.925781 C 564.550781 72.925781 564.5625 72.925781 564.574219 72.925781 Z M 564.574219 72.925781 " fill-opacity="1" fill-rule="nonzero"/><path fill="#bc7f64" d="M 565.359375 80.238281 C 565.027344 80.238281 564.75 79.976562 564.714844 79.628906 C 564.679688 79.28125 564.957031 78.964844 565.308594 78.929688 C 570.683594 78.492188 575.644531 75.070312 577.964844 70.199219 C 578.125 69.886719 578.523438 69.746094 578.839844 69.902344 C 579.171875 70.0625 579.3125 70.445312 579.152344 70.777344 C 576.640625 76.050781 571.242188 79.75 565.429688 80.238281 C 565.40625 80.238281 565.382812 80.238281 565.359375 80.238281 Z M 565.359375 80.238281 " fill-opacity="1" fill-rule="nonzero"/><path fill="#3d4a54" d="M 573.984375 52.792969 C 573.53125 52.792969 573.082031 52.832031 572.640625 52.914062 C 571.105469 53.160156 569.691406 53.859375 568.574219 54.851562 C 567.019531 56.234375 566.007812 58.1875 565.832031 60.386719 C 564.75 60.039062 563.839844 60.335938 563.230469 60.738281 C 562.652344 58.78125 561.433594 57.140625 559.824219 56.128906 C 559.230469 55.742188 558.589844 55.464844 557.90625 55.289062 C 557.359375 55.136719 556.789062 55.0625 556.195312 55.0625 C 552.089844 55.0625 548.753906 58.746094 548.753906 63.285156 C 548.753906 67.808594 552.089844 71.511719 556.195312 71.511719 C 560.296875 71.511719 563.632812 67.808594 563.632812 63.285156 C 563.632812 62.738281 563.585938 62.210938 563.492188 61.699219 C 563.789062 61.417969 564.59375 60.84375 565.8125 61.332031 C 565.988281 65.714844 569.566406 69.222656 573.984375 69.222656 C 578.523438 69.222656 582.207031 65.539062 582.207031 61.015625 C 582.207031 56.476562 578.523438 52.792969 573.984375 52.792969 Z M 556.195312 70.601562 C 552.578125 70.601562 549.644531 67.320312 549.644531 63.285156 C 549.644531 59.253906 552.578125 55.96875 556.195312 55.96875 C 559.808594 55.96875 562.742188 59.253906 562.742188 63.285156 C 562.742188 67.320312 559.808594 70.601562 556.195312 70.601562 Z M 573.984375 68.332031 C 569.953125 68.332031 566.667969 65.050781 566.667969 61.015625 C 566.667969 58.660156 567.804688 56.546875 569.550781 55.21875 C 569.839844 54.976562 570.160156 54.765625 570.511719 54.589844 C 570.511719 54.578125 570.515625 54.578125 570.527344 54.589844 C 571.558594 54.015625 572.746094 53.699219 573.984375 53.699219 C 578.019531 53.699219 581.300781 56.984375 581.300781 61.015625 C 581.300781 65.050781 578.019531 68.332031 573.984375 68.332031 Z M 573.984375 68.332031 " fill-opacity="1" fill-rule="nonzero"/><path fill="#1b1b28" d="M 605.589844 77.203125 C 605.589844 77.203125 603.703125 89.40625 605.429688 91.363281 C 607.175781 93.335938 610.300781 77.464844 610.300781 77.464844 Z M 605.589844 77.203125 " fill-opacity="1" fill-rule="nonzero"/><path fill="#1b1b28" d="M 607.507812 63.058594 C 607.507812 63.058594 599.109375 61.960938 600.089844 49.144531 C 601.066406 36.34375 585.195312 37.863281 579.171875 42.28125 C 573.375 46.523438 549.960938 51.082031 547.621094 46.140625 L 550.101562 39.734375 C 550.101562 39.734375 565.726562 26.671875 588.597656 28.261719 C 611.488281 29.867188 619.625 43.136719 619.625 43.136719 L 612.535156 63.058594 C 612.535156 63.058594 607.507812 63.058594 607.507812 63.058594 Z M 607.507812 63.058594 " fill-opacity="1" fill-rule="nonzero"/><path fill="#e7ac8d" d="M 603.109375 78.230469 C 606.285156 81.324219 613.078125 79.507812 618.296875 74.144531 C 623.5 68.804688 625.160156 61.960938 621.984375 58.867188 C 618.804688 55.777344 611.996094 57.59375 606.792969 62.9375 C 601.589844 68.296875 599.929688 75.140625 603.109375 78.230469 Z M 603.109375 78.230469 " fill-opacity="1" fill-rule="nonzero"/><path fill="#bc7f64" d="M 611.105469 73.851562 C 611.839844 73.761719 612.503906 73.5 612.921875 73.324219 C 613.253906 73.203125 613.425781 72.820312 613.289062 72.488281 C 613.148438 72.136719 612.765625 71.980469 612.433594 72.121094 C 611.578125 72.453125 610.617188 72.75 610.039062 72.347656 C 609.429688 71.929688 609.445312 70.917969 609.464844 70.621094 C 609.570312 68.996094 610.511719 67.285156 612.03125 65.941406 C 613.480469 64.683594 615.277344 63.808594 617.007812 63.023438 C 617.339844 62.882812 617.476562 62.484375 617.339844 62.167969 C 617.179688 61.835938 616.796875 61.679688 616.464844 61.835938 C 614.648438 62.65625 612.746094 63.582031 611.175781 64.960938 C 609.359375 66.550781 608.277344 68.542969 608.15625 70.53125 C 608.085938 71.824219 608.484375 72.871094 609.289062 73.429688 C 609.847656 73.816406 610.496094 73.902344 611.105469 73.851562 Z M 611.105469 73.851562 " fill-opacity="1" fill-rule="nonzero"/><path fill="#284486" d="M 604.4375 116.398438 L 592.648438 131.1875 C 592.648438 131.1875 587.8125 121.636719 585.753906 117.445312 C 585.753906 117.445312 555.738281 132.601562 552.195312 138.171875 C 548.652344 143.742188 541.109375 251.574219 541.109375 251.574219 C 541.109375 251.574219 592.824219 282.847656 655.402344 253.113281 C 655.402344 253.113281 647.441406 140.25 641.746094 132.132812 C 636.054688 124.03125 604.433594 116.398438 604.433594 116.398438 Z M 604.4375 116.398438 " fill-opacity="1" fill-rule="nonzero"/><path fill="#53606b" d="M 585.753906 117.445312 C 585.753906 117.445312 556.4375 131.414062 551.234375 137.019531 C 546.03125 142.625 538.417969 252.726562 538.417969 252.726562 C 538.417969 252.726562 551.234375 263.535156 584.058594 267.339844 C 584.058594 267.339844 580.027344 186.152344 585.753906 117.445312 Z M 585.753906 117.445312 " fill-opacity="1" fill-rule="nonzero"/><path fill="#3d4a54" d="M 585.753906 117.445312 L 569.234375 141.4375 L 583.152344 166.945312 Z M 585.753906 117.445312 " fill-opacity="1" fill-rule="evenodd"/><path fill="#53606b" d="M 551.234375 137.019531 C 551.234375 137.019531 515.511719 190.570312 522.792969 213.003906 C 530.195312 235.824219 558.21875 209.601562 558.21875 209.601562 Z M 551.234375 137.019531 " fill-opacity="1" fill-rule="nonzero"/><path fill="#53606b" d="M 604.4375 116.398438 C 604.4375 116.398438 635.09375 123.015625 642.304688 130.820312 C 649.515625 138.625 657.914062 254.332031 657.914062 254.332031 C 657.914062 254.332031 628.390625 268.144531 602.21875 268.335938 C 602.21875 268.335938 596.195312 196.679688 604.4375 116.398438 Z M 604.4375 116.398438 " fill-opacity="1" fill-rule="nonzero"/><path fill="#3d4a54" d="M 604.4375 116.398438 L 621.195312 140.390625 L 600.890625 166.441406 C 601.519531 149.3125 602.480469 132.601562 604.4375 116.398438 Z M 604.4375 116.398438 " fill-opacity="1" fill-rule="nonzero"/><path fill="#3d4a54" d="M 555.582031 157.289062 C 554.621094 157.289062 553.835938 156.503906 553.835938 155.546875 L 553.835938 133.980469 C 553.835938 133.023438 554.621094 132.234375 555.582031 132.234375 C 556.558594 132.234375 557.328125 133.023438 557.328125 133.980469 L 557.328125 155.546875 C 557.328125 156.503906 556.542969 157.289062 555.582031 157.289062 Z M 555.582031 157.289062 " fill-opacity="1" fill-rule="nonzero"/><path fill="#ff5a45" d="M 523.003906 155.578125 L 568.222656 149.171875 L 574.648438 222.554688 L 535.085938 224.164062 Z M 523.003906 155.578125 " fill-opacity="1" fill-rule="evenodd"/><path fill="#e9ae8f" d="M 592.160156 202.164062 C 592.160156 202.164062 588.09375 216.324219 567.261719 196.558594 C 567.261719 196.558594 563.980469 198.320312 562.496094 197.273438 C 561.011719 196.226562 556.925781 181.578125 563.910156 179.082031 C 563.910156 179.082031 560 179.152344 559.40625 176.882812 C 558.796875 174.609375 571.804688 171.800781 574.894531 173.425781 C 577.984375 175.046875 596.929688 190.972656 592.160156 202.164062 Z M 592.160156 202.164062 " fill-opacity="1" fill-rule="nonzero"/><path fill="#53606b" d="M 635.496094 159.839844 L 644.558594 197.535156 L 590.152344 188.472656 L 587.988281 208.554688 C 587.988281 208.554688 651.246094 235.808594 664.863281 220.601562 C 678.464844 205.375 642.585938 131.1875 642.585938 131.1875 Z M 635.496094 159.839844 " fill-opacity="1" fill-rule="nonzero"/><path fill="#3d4a54" d="M 644.558594 198.183594 C 644.523438 198.183594 644.488281 198.183594 644.453125 198.183594 L 603.371094 191.339844 C 603.019531 191.285156 602.777344 190.953125 602.828125 190.585938 C 602.898438 190.238281 603.214844 189.992188 603.578125 190.046875 L 643.703125 196.734375 L 635.6875 161.832031 C 635.601562 161.480469 635.828125 161.132812 636.179688 161.042969 C 636.527344 160.957031 636.875 161.183594 636.964844 161.535156 L 645.203125 197.378906 C 645.238281 197.613281 645.179688 197.808594 645.03125 197.972656 C 644.902344 198.113281 644.746094 198.183594 644.558594 198.183594 Z M 644.558594 198.183594 " fill-opacity="1" fill-rule="nonzero"/><path fill="#3d4a54" d="M 649.097656 224.859375 C 632.753906 224.859375 603.683594 215.292969 602.425781 214.875 C 602.078125 214.75 601.886719 214.386719 602.007812 214.054688 C 602.113281 213.703125 602.496094 213.511719 602.828125 213.632812 C 603.160156 213.738281 634.9375 224.214844 650.6875 223.515625 C 650.699219 223.515625 650.703125 223.515625 650.703125 223.515625 C 651.054688 223.515625 651.351562 223.796875 651.367188 224.144531 C 651.386719 224.511719 651.105469 224.808594 650.738281 224.828125 C 650.203125 224.847656 649.65625 224.859375 649.097656 224.859375 Z M 649.097656 224.859375 " fill-opacity="1" fill-rule="nonzero"/><path fill="#284486" d="M 681.800781 531.703125 C 671.726562 516.320312 665.160156 500.78125 662.089844 485.191406 C 662.101562 485.097656 662.105469 485.007812 662.105469 484.929688 C 662.082031 484.671875 662.023438 484.421875 661.929688 484.175781 C 659.085938 468.96875 659.589844 453.691406 663.46875 438.464844 C 669.421875 415.175781 681.488281 400.71875 681.609375 400.578125 C 682.535156 399.480469 682.410156 397.820312 681.292969 396.894531 C 680.195312 395.953125 678.554688 396.089844 677.609375 397.191406 C 677.085938 397.800781 664.742188 412.554688 658.457031 436.929688 C 655.367188 448.960938 653.515625 464.605469 656.464844 482.675781 C 635.183594 484.074219 610.914062 484.824219 585.875 484.875 L 585.875 398.886719 C 585.875 397.453125 584.707031 396.265625 583.257812 396.265625 C 581.808594 396.265625 580.636719 397.453125 580.636719 398.886719 L 580.636719 484.875 C 555.601562 484.824219 531.332031 484.074219 510.046875 482.675781 C 512.996094 464.605469 511.148438 448.960938 508.054688 436.929688 C 501.769531 412.554688 489.425781 397.820312 488.902344 397.191406 C 487.960938 396.089844 486.320312 395.953125 485.21875 396.894531 C 484.101562 397.820312 483.980469 399.480469 484.90625 400.578125 C 485.027344 400.71875 497.089844 415.175781 503.046875 438.464844 C 506.921875 453.691406 507.410156 468.96875 504.582031 484.175781 C 504.488281 484.410156 504.429688 484.660156 504.40625 484.929688 C 504.40625 485.007812 504.414062 485.097656 504.425781 485.191406 C 501.351562 500.78125 494.785156 516.320312 484.710938 531.703125 C 483.925781 532.90625 484.257812 534.550781 485.464844 535.335938 C 485.917969 535.625 486.394531 535.765625 486.894531 535.753906 C 487.75 535.753906 488.589844 535.351562 489.09375 534.582031 C 499.953125 517.996094 506.046875 502.230469 509.070312 487.859375 C 530.613281 489.292969 555.234375 490.0625 580.636719 490.113281 L 580.636719 552.691406 C 580.636719 554.121094 581.808594 555.308594 583.257812 555.308594 C 584.707031 555.308594 585.875 554.121094 585.875 552.691406 L 585.875 490.113281 C 611.28125 490.0625 635.898438 489.292969 657.445312 487.859375 C 660.464844 502.230469 666.558594 517.996094 677.417969 534.582031 C 677.925781 535.351562 678.761719 535.769531 679.617188 535.769531 C 680.117188 535.769531 680.597656 535.625 681.050781 535.335938 C 682.253906 534.53125 682.585938 532.90625 681.800781 531.703125 Z M 681.800781 531.703125 " fill-opacity="1" fill-rule="nonzero"/><path fill="#ff5a45" d="M 583.257812 414.164062 C 504.878906 414.164062 441.535156 407.335938 441.535156 398.886719 C 441.535156 390.433594 504.878906 383.609375 583.257812 383.609375 C 661.632812 383.609375 724.980469 390.433594 724.980469 398.886719 C 724.980469 407.335938 661.632812 414.164062 583.257812 414.164062 Z M 583.257812 414.164062 " fill-opacity="1" fill-rule="evenodd"/><path fill="#3d4a54" d="M 545.316406 380.953125 L 504.53125 395.953125 L 504.53125 400.492188 L 609.726562 400.492188 L 650.511719 385.492188 L 650.511719 380.953125 Z M 545.316406 380.953125 " fill-opacity="1" fill-rule="evenodd"/><path fill="#53606b" d="M 545.316406 308.949219 L 650.511719 308.949219 L 650.511719 380.972656 L 545.316406 380.972656 Z M 545.316406 308.949219 " fill-opacity="1" fill-rule="evenodd"/><path fill="#ff5a45" d="M 601.503906 312.945312 C 601.011719 312.945312 600.628906 312.5625 600.628906 312.074219 C 600.628906 311.585938 601.011719 311.199219 601.503906 311.199219 C 601.992188 311.199219 602.375 311.585938 602.375 312.074219 C 602.375 312.5625 601.992188 312.945312 601.503906 312.945312 Z M 601.503906 312.945312 " fill-opacity="1" fill-rule="evenodd"/><path fill="#3d4a54" d="M 598.082031 313.609375 C 597.222656 313.609375 596.542969 312.929688 596.542969 312.074219 C 596.542969 311.21875 597.222656 310.539062 598.082031 310.539062 C 598.9375 310.539062 599.617188 311.21875 599.617188 312.074219 C 599.617188 312.929688 598.9375 313.609375 598.082031 313.609375 Z M 598.082031 313.609375 " fill-opacity="1" fill-rule="evenodd"/><path fill="#284486" d="M 549.050781 314.902344 L 646.777344 314.902344 L 646.777344 377.898438 L 549.050781 377.898438 Z M 549.050781 314.902344 " fill-opacity="1" fill-rule="evenodd"/><path fill="#5a79b7" d="M 646.777344 314.902344 L 549.050781 377.898438 L 549.050781 314.902344 Z M 646.777344 314.902344 " fill-opacity="1" fill-rule="evenodd"/><path fill="#284486" d="M 497.074219 370.441406 L 494.558594 370.441406 L 494.558594 366.617188 C 494.558594 362.796875 468.542969 362.796875 468.542969 366.617188 L 468.542969 394.046875 C 468.542969 398.851562 494.558594 398.851562 494.558594 394.046875 L 494.558594 390.015625 L 497.074219 390.015625 C 499.589844 390.015625 501.648438 387.953125 501.648438 385.441406 L 501.648438 375.015625 C 501.648438 372.503906 499.589844 370.441406 497.074219 370.441406 Z M 499.902344 385.441406 C 499.902344 386.996094 498.628906 388.269531 497.074219 388.269531 L 494.558594 388.269531 L 494.558594 372.1875 L 497.074219 372.1875 C 498.628906 372.1875 499.902344 373.464844 499.902344 375.015625 Z M 499.902344 385.441406 " fill-opacity="1" fill-rule="nonzero"/><path fill="#ff5a45" d="M 681.660156 369.605469 C 681.660156 369.605469 675.707031 329.691406 718.378906 309.996094 C 718.378906 309.996094 717.347656 353.785156 681.660156 369.605469 Z M 681.660156 369.605469 " fill-opacity="1" fill-rule="nonzero"/><path fill="#cc392e" d="M 681.625 369.621094 C 681.625 369.621094 662.507812 339.992188 689.378906 308.949219 C 689.378906 308.949219 704.339844 344.164062 681.625 369.621094 Z M 681.625 369.621094 " fill-opacity="1" fill-rule="nonzero"/><path fill="#ff5a45" d="M 682.550781 368.871094 C 682.550781 368.871094 658.265625 353.121094 667.9375 320.804688 C 667.9375 320.804688 691.003906 342.15625 682.550781 368.871094 Z M 682.550781 368.871094 " fill-opacity="1" fill-rule="nonzero"/><path fill="#284486" d="M 703.292969 381.09375 C 703.292969 387.710938 701.441406 393.71875 698.371094 398.308594 C 698.371094 400.335938 668.96875 400.335938 668.96875 398.308594 C 665.914062 393.714844 664.0625 387.710938 664.0625 381.09375 C 664.0625 375.226562 665.527344 369.832031 667.972656 365.484375 C 667.972656 363.160156 699.367188 363.160156 699.367188 365.484375 C 701.828125 369.832031 703.292969 375.226562 703.292969 381.09375 Z M 703.292969 381.09375 " fill-opacity="1" fill-rule="nonzero"/></svg>