<svg version="1.2" xmlns="http://www.w3.org/2000/svg" viewBox="0 0 2600 2000" width="2600" height="2000">
	<style>
		.s0 { fill: #dce6ff } 
		.s1 { fill: #d4e8ff } 
		.s2 { fill: #eef7ff } 
		.s3 { fill: #cfddf9 } 
		.s4 { fill: #8c4225 } 
		.s5 { fill: #f99370 } 
		.s6 { fill: #3a72aa } 
		.s7 { fill: #eb5648 } 
		.s8 { fill: #e57d61 } 
		.s9 { fill: #23659b } 
		.s10 { fill: #1d3f70 } 
		.s11 { fill: #103663 } 
		.s12 { fill: #28507f } 
		.s13 { fill: #d64343 } 
		.s14 { fill: #f9f8f3 } 
		.s15 { fill: #c16256 } 
		.s16 { fill: #667ecc } 
		.s17 { fill: #4867aa } 
		.s18 { fill: #a4c2fc } 
		.s19 { opacity: .1;fill: #ffffff } 
	</style>
	<g>
		<g id="_x34_">
			<path class="s0" d="m367.06 1595.85c-4.38-13.54-8.72-27.57-12.9-41.7l10.29-3.08c4.14 14.03 8.46 27.97 12.81 41.42zm1839.85-17.48l-10.65-1.33c1.77-14.41 3.45-28.93 4.99-43.14l10.67 1.17c-1.55 14.27-3.23 28.83-5.01 43.3zm-1864.59-66.22c-3.76-13.96-7.4-28.19-10.83-42.27l10.42-2.58c3.41 14.01 7.03 28.14 10.76 42.02zm1874-20.44l-10.68-1.01c1.35-14.47 2.61-29.03 3.73-43.27l10.7 0.86c-1.13 14.29-2.39 28.9-3.75 43.42zm-1894.62-64.35c-3.1-14.23-6.05-28.62-8.77-42.76l10.54-2.05c2.7 14.05 5.63 28.35 8.71 42.49zm1901.45-22.56l-10.71-0.68c0.91-14.46 1.71-29.05 2.37-43.35l10.71 0.5c-0.66 14.37-1.46 29.01-2.37 43.53zm-1917.91-63.16c-2.38-14.41-4.59-28.93-6.56-43.17l10.62-1.49c1.96 14.15 4.15 28.57 6.52 42.88zm1921.93-23.94l-10.73-0.32c0.42-14.52 0.71-29.12 0.86-43.4l10.73 0.12c-0.15 14.34-0.44 29.01-0.86 43.6zm-1933.88-62.56c-1.6-14.55-2.99-29.17-4.13-43.48l10.69-0.87c1.14 14.2 2.52 28.72 4.11 43.16zm1924.05-24.56c-0.13-14.54-0.4-29.13-0.82-43.39l10.73-0.31c0.41 14.32 0.69 29 0.82 43.6zm-1931-62.51c-0.71-14.63-1.19-29.32-1.41-43.66l10.73-0.17c0.22 14.22 0.69 28.79 1.39 43.3zm1928.46-24.22c-0.73-14.52-1.64-29.08-2.69-43.29l10.7-0.81c1.06 14.3 1.97 28.95 2.71 43.55zm-1919.03-62.92l-10.73-0.22c0.3-14.67 0.87-29.37 1.71-43.67l10.71 0.63c-0.83 14.17-1.4 28.73-1.69 43.26zm1912.62-23.58c-1.44-14.52-3.06-29.01-4.83-43.09l10.65-1.35c1.78 14.17 3.41 28.76 4.85 43.37zm-1907.52-62.82l-10.67-1.08c1.46-14.62 3.23-29.22 5.28-43.42l10.62 1.56c-2.03 14.03-3.78 28.48-5.23 42.94zm1896.69-23.19c-2.23-14.42-4.68-28.79-7.28-42.7l10.54-2c2.63 14.02 5.1 28.5 7.35 43.04zm-1268.96-1.53c-14.91-2.37-25.69-9.2-40.63-21.01l6.78-8.37c13.09 10.31 22.54 16.5 34.99 18.63zm37.23-25.71l-9.56-4.92c4.91-9.68 9.26-23.13 12.91-39.95l10.48 2.31c-3.9 17.98-8.43 31.9-13.83 42.56zm-109.35-26.29c-8.55-9.59-17.68-20.62-27.92-33.73l8.43-6.69c10.1 12.93 19.08 23.79 27.47 33.2zm-543.22-8.87l-10.53-2.05c2.78-14.43 5.92-28.81 9.35-42.76l10.41 2.6c-3.38 13.77-6.48 27.97-9.23 42.21zm1868.35-22.73c-3.18-14.27-6.61-28.42-10.19-42.06l10.37-2.76c3.62 13.76 7.08 28.05 10.28 42.46zm-1194.72-28.17l-10.64-1.38c1.65-12.9 3.12-27.03 4.51-43.19l10.69 0.93c-1.4 16.32-2.89 30.59-4.56 43.64zm-184.6-8.79c-8.72-11.86-17.77-24.4-25.56-35.22l8.68-6.35c7.78 10.8 16.81 23.32 25.5 35.14zm785.53-0.89c-8.35 0-16.55-2.51-24.36-7.47l5.72-9.14c11.73 7.46 23.28 7.48 35.75 1.52l4.61 9.76c-7.37 3.54-14.68 5.33-21.72 5.33zm-1253.9-23.28l-10.27-3.16c4.27-14.04 8.94-28.01 13.91-41.51l10.06 3.75c-4.89 13.31-9.5 27.07-13.7 40.92zm1310.71-10.31l-7.89-7.33c8.14-8.87 16.86-19.82 26.67-33.46l8.69 6.33c-10.06 14-19.05 25.27-27.47 34.46zm-111.68-7.43c-6.95-10.79-13.83-23.49-21.04-38.84l9.7-4.62c7.01 14.91 13.66 27.2 20.34 37.59zm626.63-4.79c-4.32-14-8.94-27.79-13.71-40.97l10.08-3.7c4.83 13.34 9.5 27.29 13.87 41.46zm-1408.27-23.77c-9.82-13.51-18-24.6-25.74-34.91l8.55-6.52c7.78 10.35 16 21.49 25.85 35.05zm243.38-8.03l-10.7-0.7c0.81-12.66 1.64-26.89 2.52-43.5l10.72 0.58c-0.89 16.65-1.72 30.92-2.54 43.62zm-630.98-26.6l-9.81-4.37q8.83-20.16 18.83-39.53l9.52 5q-9.85 19.05-18.54 38.9zm1332.98-0.01l-8.97-5.93c7.63-11.68 15.5-24.05 23.47-36.55l9.03 5.84c-7.99 12.53-15.88 24.92-23.53 36.64zm-202.04-15.98c-4.86-12.28-9.88-25.67-15.35-40.95l10.09-3.67c5.43 15.17 10.41 28.45 15.22 40.62zm635.45-6.74c-5.77-13.54-11.87-26.68-18.14-39.08l9.56-4.9c6.37 12.6 12.58 25.96 18.44 39.71zm-1431.02-11.79c-9.74-12.17-18.8-23.01-27.71-33.12l8.03-7.17c9.02 10.24 18.19 21.2 28.03 33.51zm300.39-26.09l-10.71-0.55c0.72-14.44 1.44-28.88 2.2-43.58l10.72 0.57c-0.77 14.69-1.48 29.12-2.21 43.56zm744.29-12.53l-8.96-5.96c8.97-13.66 16.99-25.48 24.52-36.13l8.74 6.27c-7.46 10.54-15.41 22.26-24.3 35.82zm-1340.22-3.05l-9.05-5.82c8.43-13.3 17.13-25.31 25.84-35.7l8.2 6.97c-8.41 10.03-16.82 21.65-24.99 34.55zm1061.44-21.99c-4.92-14.52-9.75-29.06-13.82-41.36l10.18-3.41c4.07 12.28 8.89 26.79 13.8 41.28zm-823.11-0.76c-10.96-10.75-21.75-20.25-32.05-28.23l6.55-8.57c10.63 8.24 21.72 18.01 32.99 29.06zm1449.26-0.46c-7.69-12.64-15.75-24.59-23.96-35.52l8.55-6.52c8.42 11.21 16.68 23.45 24.55 36.39zm-1632.51-40.74l-6.51-8.6c12.82-9.84 26.15-16.94 39.64-21.1l3.14 10.34c-12.27 3.78-24.47 10.29-36.27 19.36zm1335.31-3.31l-8.33-6.8c10.06-12.51 19.6-23.27 29.15-32.9l7.59 7.64c-9.29 9.36-18.58 19.85-28.41 32.06zm-789.85-4.25l-10.71-0.64c0.93-15.71 1.85-29.98 2.82-43.61l10.7 0.77c-0.96 13.59-1.88 27.82-2.81 43.48zm-429.73-2.26c-13.38-6.71-26.55-10.99-39.14-12.73l1.46-10.71c13.74 1.9 28.03 6.53 42.46 13.76zm1465.22-17.47c-10.33-10.66-21.02-20.06-31.79-27.96l6.32-8.74c11.25 8.26 22.4 18.06 33.15 29.16zm-602.1-13.47c-5.34-16.08-9.74-29.19-13.84-41.26l10.15-3.5c4.11 12.1 8.52 25.23 13.87 41.34zm416.97-22.21l-6.15-8.86c13.2-9.29 26.53-16.18 39.62-20.46l3.31 10.28c-12.08 3.95-24.45 10.35-36.78 19.04zm117.07-13.24c-13.28-5.65-26.74-9.14-39.98-10.39l1-10.76c14.33 1.35 28.85 5.12 43.15 11.19zm-961.19-18.23l-10.69-0.95c1.34-15.17 2.79-29.81 4.32-43.53l10.67 1.21c-1.53 13.63-2.97 28.19-4.3 43.27zm399.03-28.69c-5.19-14.57-10.07-27.9-14.94-40.73l10.02-3.85c4.9 12.9 9.81 26.29 15.02 40.94zm-389.27-57.68l-10.62-1.55c2.17-15.13 4.56-29.68 7.09-43.25l10.54 2c-2.5 13.42-4.86 27.82-7.01 42.8zm358.39-23.41c-5.77-13.96-11.58-27.33-17.27-39.72l9.73-4.54c5.76 12.52 11.63 26.02 17.45 40.12zm-342.27-61.69l-10.41-2.62c3.75-15.09 7.87-29.3 12.27-42.25l10.15 3.5c-4.3 12.66-8.34 26.58-12.01 41.37zm305.94-16.82c-7.06-13.39-14.27-25.96-21.43-37.36l9.07-5.77c7.31 11.62 14.65 24.43 21.84 38.06zm-277.82-64.14l-9.62-4.79c7.04-14.38 14.86-27.09 23.22-37.78l8.43 6.68c-7.9 10.11-15.32 22.18-22.03 35.89zm231.8-8.26c-9.38-11.84-19.05-22.33-28.76-31.17l7.2-8.02c10.13 9.24 20.21 20.15 29.95 32.45zm-179.84-55.64l-5.78-9.1c12.71-8.19 26.71-13.52 41.62-15.84l1.63 10.69c-13.42 2.08-26.03 6.87-37.47 14.25zm117.22-0.01c-12.5-6.78-25.52-11.42-38.69-13.79l1.88-10.64c14.3 2.57 28.4 7.59 41.9 14.92z"/>
			<path class="s1" d="m571.53 1654.31c0 0-261.32-646.4-73.27-790.34 125.7-96.21 258.93 115.88 417.95 3.68 141.58-99.89 96.57-403.79 322.36-445.8 253.86-47.23 309.76 519.59 518.09 442.12 252.8-94.01 504.26 96.83 286.95 791.57z"/>
			<path class="s2" d="m2274.91 1404.17c-89.04-14.91-74.51 119.81-201.43 119.81-116.03 0-153.16-513.05-237.59-366.39-432.83 751.86-181.49-319.74-525.71-333.36-155.65-6.16-259.37 181.37-297.61 513.39-55.45 300.17-184.02-228.93-316.34-179.74-84.09 31.27-74.46 366.1-190.5 366.1-126.92 0-112.39-134.72-201.43-119.81-95.86 16.06-124.49 254.51-124.49 254.51h2219.6c0 0-28.64-238.45-124.5-254.51z"/>
			<path class="s0" d="m2196.06 1550.01c-81.91-6.37-68.54 51.16-185.3 51.16-106.76 0-103.82-128.93-175.26-156.33-131.56-50.46-240.02 204.92-291.02 76.75-96.87-340.1-379.4-510.66-509.75 0-51 128.17-170.27-100.53-291.01-76.75-74.33 14.63-68.51 156.33-175.26 156.33-116.76 0-103.4-57.53-185.31-51.16-88.19 6.85-114.53 108.68-114.53 108.68h2041.98c-0.01-0.01-26.35-101.83-114.54-108.68z"/>
			<path class="s3" d="m179.81 1658.68c0 0-13.93 43.77 50.59 54.73 88.24 14.99 606.2 54.37 480.37 84.3-71.03 16.89 36.26 39.83 382.24 48.27 345.98 8.45 939.65-24.65 740-73.61-199.64-48.97 615.94-11.83 566.39-113.68z"/>
		</g>
		<g id="_x33__6_">
			<path class="s4" d="m1835.07 509.5c0 0-25.45-21.19-52.61 11.66-27.17 32.85-12.94 39.19-50.27 74.12-37.32 34.92 4.64 93.41 36.59 102.46 31.95 9.05-3.8 47.31 59.81 55.94 63.6 8.64 218.69-159.34 6.48-244.18z"/>
			<path class="s5" d="m1532.74 1137.64c0.77 2.06 3.14 3 5.13 2.11 5.91-2.4 12.07-4.29 18.36-5.26-4.85 10.49-12.77 19.67-12.75 19.74-11.17 8.97-22.8 17.31-34.82 25.13-3.91 2.41-0.41 8.71 3.73 6.59 12.57-6.12 24.91-12.81 36.86-20.1q0.08 0.08 0.15 0.16c-9.48 11.62-19.61 22.74-30.62 32.93-6.75 22.7 36.99-22.65 40.58-26.01q0.05 0.02 0.09 0.04c-7.05 12.42-15.62 23.98-25.31 34.48-4.48 23.36 35.71-25.78 38.22-30.53q0.08 0.01 0.17 0.03c-4.13 10.57-9.61 20.62-15.55 30.31-0.91 21.97 27.2-24.38 29.15-28.88 3.56-4.24 15.13-19.2 22.36-45.09 2.27-8.07-19.45-20.69-27.46-18.75-7.5 1.81-17.06 6.25-20.43 8-6.05 1.72-29.53 7.48-27.86 15.1z"/>
			<path class="s5" d="m1813.8 835.72c0.61-0.05 1.84-0.18 2.42-0.24-45.26 15.73-66.72 65.71-83.69 107.2-12.3 29.91-26.82 58.88-43.09 86.81-23.55 39.61-50.35 77.61-83.01 110.29-17.25 15.27-38.68-3.92-29.66-23.97 34.67-64.97 59.22-135.36 74.71-207.26 17.46-76.08 66.36-160.67 150.83-174.83 69.19-8.53 80.96 94.98 11.49 101.99z"/>
			<path class="s6" d="m1790.35 820.05q-2.54 10.16-5.47 20.56c-15.51 55.23-38.22 114.28-59.93 161.48-17.78 38.6-34.89 69.24-46.87 83.37-14.58 17.19-26.89 27.39-36.48 33.43-15.12 9.53-23.51 8.74-23.51 8.74-11.03-24.94-33.44-27.03-33.44-27.03-2.31-5.82-3.14-12.08-2.88-18.71 1.44-35.7 35.02-81.58 43.86-119.92 10.5-45.45 25.36-124.12 70.81-175.69 32.26-36.6 73.01-49.65 93.95-54.13 8.58-1.85 13.83-2.25 13.83-2.25 0 0-16.97 26.15-21.55 45.55-4.6 17.25-2.21 35.08 7.68 44.6z"/>
			<path class="s5" d="m1860.42 722.97c73.79 4.67 167.33 51.32 212.52 109.78 69.91 90.42 4.28 205.39-60.06 228.06-31.25 11.01-39.87-3.63-16.88-26.78 72.26-72.76 5.28-144.94-58.18-166.46-22.13-7.5-70.46-144.12-77.4-144.6z"/>
			<path class="s5" d="m1879.57 1761.94v2.84h82.96c1.85-23.61-17.74-39.63-13.88-63.38 0 0 54.12-252.29 13.88-294.92-17.78-18.84-98.21-13.57-108.32 14.8-13.91 39.04 39.04 281.09 39.04 281.09 3.59 22.55-14.18 37.39-13.68 59.57z"/>
			<path class="s5" d="m1617.17 1764.78l153.34 4.27c-0.7-15.18-3.05-55.52-0.61-74.88 0 0 61.44-218.27 25.93-263.47-17.38-22.12-74.27-57.23-91.92-35.32-37.17 46.13 8.15 299.71 8.15 299.71 1.32 54.78-94.68 16.36-94.89 69.69z"/>
			<path class="s7" d="m1617.17 1764.78l146.92 5.24c0 0 8.2 0.68 8.05-5.24 1.18-11.55-3.55-39.88-3.21-54.61 0.02 0-25.45 41.84-124.5 24.69-16.44 4.16-27.81 13.23-27.26 29.92z"/>
			<path class="s7" d="m1879.58 1761.94v2.84h82.95c0.38-10.21-1.97-21.17-6.94-29.64 0 0-31.73-25.78-69.04-0.05-4.5 7.68-7.01 17.48-6.97 26.85z"/>
			<path class="s5" d="m1722.48 1083.38c278.23-14.55 192.87 62.22 189.6-155.3-5.88-69.79 40.03-176.7-51.66-205.11-2.82-20.44-0.68-57.39 3.37-75.59 8.72-32.53-43.75-45.38-50.89-12.26-1.76 6.19-5.06 40.4-6.06 70.09-0.29 11.6 1.84 23.35-7.85 31.26-89.72 93.99-73.75 225.1-76.51 346.9z"/>
			<path class="s8" d="m1806.91 705.21c10.77 2.23 33.19 5.17 52.29-3.28q0.01-2.36 0.08-4.82c-0.35-15.68 1.35-29.34 2.51-38.12 2.69-16.45 5.7-22.6-3.4-34.61-6.57-8.2-19.48-11.59-29.23-7.58-25.37 10.83-21.1 45.99-22.25 88.41z"/>
			<path class="s9" d="m1714.1 837.86c0 0-27.32 31.84-18.09 72.86 11.13 49.43 13.8 79.77 5.61 126.45-8.19 46.69 59.95 10.51 59.95 10.51z"/>
			<path class="s6" d="m1946.93 1083.73c-45.68 10.73-132.66-59.27-229.24-83.6-5.18-149.2-55.55-125.67 86.53-270.23 0 0-16.97 26.15-21.55 45.55-7.44 27.94 3.39 57.71 35.34 50.48 34.58-9.4 39.93-92 42.41-102.97 19.62 17.98 78.98 92.75 77.4 139.08 2.17 27.66-5.99 52.29-7.44 82.33-9.68 63.56 51.44 76.68 16.55 139.36z"/>
			<path class="s9" d="m1930.38 944.37c-0.57 6.83-1.25 13.02-0.88 18.67-3.61-11.07-5.3-25.07-2.56-40.34 6.42-35.89 0-65.49 0-65.49l10.6 1.89q0.17 1.45 0.28 2.94c2.29 25.81-5.92 52.25-7.44 82.33z"/>
			<path class="s6" d="m2063.76 1041.22c-8.75 5.33-16.9 6.69-22.68 3.83 0 0-9.35-21.75-33.64-24 0 0-2.47-5.76-2.73-17.23-0.17-6.69 0.4-15.29 2.63-25.81 9.91-46.63-40-87.77-69.3-100.01-27.53-11.52-45.65-36.44-57.47-64.37-13.22-31.29-18.51-66.38-20.15-90.67 0 0 30.12-6.65 86.08 11.86q3.55 1.19 7.26 2.5c60.62 21.59 155.58 81.01 158.78 181.83 2.09 65.51-25.46 107.88-48.78 122.07z"/>
			<path class="s10" d="m1702.1 1636.71c2.25 12.4 3.68 19.72 3.87 20.77 34.34 10.64 73.04 1.61 73.04 1.61q0.01-0.02 0.02-0.03c0.37-0.61 0.75-1.32 1.11-2 42.49-86.61 34.14-365.34 47.27-440.17-0.06 70.24 26.92 344.62 56.46 440.49 21.97 13.04 65.61 1.65 73.38-0.3 41.37-165.66 6.46-178.16 36.88-369.7 16.45-129.03 5.56-210.58-57.08-291.83-77.3 17.21-148.47 26.97-219.36 4.57 0 0-29.99 56.97-37.23 121.88-22.94 205.55-14.86 334.1 21.64 514.71z"/>
			<path class="s11" d="m1701.62 1037.17c1.43 0.57 78.48 30.22 258.99-6.96-11.15-24.43-23.24-37.04-23.24-37.04-105.69 27.42-219.68 6.95-219.68 6.95 0 0-13.73 21.51-16.07 37.05z"/>
			<path class="s11" d="m1947.29 1640.46c12.51-55.93 17.69-141.75 12.02-204.21-3.3-36.31-0.4-60.32 3.98-96.66 15.37-94.41 20.81-248.9-35.27-324.1-2.49-3.5 2.89-7.03 5.25-3.75 57.1 76.37 52.17 232.08 36.44 328.62-13.25 92.25 10.76 212.67-16.49 298.84 5.63-1.33 8.91-2.5 8.91-2.5 0 0-3.19 13.3-4.88 20.37 0 0-50.44 14.33-73.39 0.31 0 0-2.99-8.16-5.89-21.57 26.66 10.04 53.36 7.7 69.32 4.65z"/>
			<path class="s11" d="m1772.67 1640.19q0 0 0 0c12.25-32.39 28.67-190.79 25.16-231.03-3.51-40.26-2.34-121 0-157.21 2.33-36.23 29.57-35.06 29.57-35.06-12.71 72.32-5.3 338.47-43.8 432.4-1.54 3.95-3.07 7.25-4.6 9.8 0 0-38.7 9.03-73.04-1.6 0 0-1.49-7.68-3.87-20.78 27.84 9.73 54.51 6.93 70.58 3.48z"/>
			<path class="s11" d="m1827.4 1220.13c3.01 0.11 4.45-4.14 1.9-5.85-0.21-0.16-21.86-16.25-26.88-47.26-0.28-1.77-1.94-2.96-3.7-2.68-1.76 0.29-2.96 1.95-2.68 3.71 6.41 35.24 27.89 51.05 31.36 52.07z"/>
			<path class="s12" d="m1773.52 1049.5l41.88 2.03c6.96 0.33 12.88-5.04 13.21-12-0.18-10.64 6.05-33.5-10.98-34.24 0 0-41.88-2.03-41.88-2.03-6.96-0.34-12.88 5.04-13.21 12 0.18 10.64-6.05 33.5 10.98 34.24z"/>
			<path class="s13" d="m1962.53 1764.78c0 9.95-8.07 18.02-18.02 18.02h-46.92c-9.95 0-18.02-8.07-18.02-18.02z"/>
			<path class="s13" d="m1772.14 1764.78c0.29 9.86-7.62 18.02-17.49 18.02h-119.99c-9.85 0.01-17.78-8.18-17.49-18.02z"/>
			<path class="s5" d="m1966.79 1042.36c-8.76 7.8-19.85 13.13-19.87 13.21-14.02 3.82-28.23 6.88-42.58 9.29-4.62 0.67-3.91 7.94 0.81 7.64 14.18-0.62 28.38-1.85 42.46-3.8q0.04 0.1 0.07 0.2c-13.53 6.98-27.47 13.22-41.84 18.26-15.47 18.37 43.61-6.13 48.31-7.8q0.04 0.04 0.08 0.08c-11.62 8.71-24.31 16.01-37.61 21.86-13.26 19.86 43.73-9.61 48.03-12.99q0.07 0.05 0.15 0.1c-8.13 8.17-17.3 15.3-26.75 21.9-9.8 20.24 36.08-12.23 39.64-15.75 3.99-1.14 24.23-15.78 40.63-35.89 5.38-6.59-12.12-23.42-20.36-24.85-14.4-2.05-23.55-0.55-35.54-0.35z"/>
			<path class="s9" d="m1946.5 734.82c-8.74 14.42-24.05 30.86-38.66 46.81-10.26 11.22-20.2 22.16-27.27 32-4.95 6.87-8.49 13.22-9.77 18.67-6.9 29.68-46.94 31.06-54.54 22.08-7.26-8.56-15.75-17.76-31.38-13.77q-1.09 0.28-2.23 0.65c-17.07 5.53-28.49-19.32-21.09-31.06 7.42-11.72 10.54-22.77 4.91-40.08-5.64-17.31 23.49-37.59 23.92-37.97 8.58-1.85 13.83-2.25 13.83-2.25 0 0-14.59 25.28-19.18 44.68-4.6 17.25-3.94 33.95 5.96 43.48 6.2 5.98 14.65 8.49 26.91 5.69 34.59-9.4 40.03-89.82 42.51-100.79 0 0 30.12-6.65 86.08 11.86z"/>
			<path class="s9" d="m2063.76 1041.22c-8.75 5.33-16.9 6.69-22.68 3.83 0 0-9.35-21.75-33.64-24 0 0-2.47-5.76-2.73-17.23 4.86-2.64 11.25-3.92 17.92 1.7 13.11 11.05 5.82 15.79 23.78 21.87 9.77 3.31 15.37 8.17 17.35 13.83z"/>
			<path class="s9" d="m1641.6 1118.89c-15.12 9.53-23.52 8.74-23.52 8.74-11.02-24.94-33.43-27.03-33.43-27.03-2.31-5.82-3.14-12.08-2.88-18.71 7.04-0.73 14.46 0.75 19.85 7.5 13.81 17.25 17.27 17.25 31.75 20.01 4.97 0.95 7.3 4.83 8.23 9.49z"/>
			<path class="s9" d="m1799.36 868.01c0 3.33-2.7 6.03-6.03 6.03-3.33 0-6.03-2.7-6.03-6.03 0-3.33 2.7-6.03 6.03-6.03 3.33 0 6.03 2.7 6.03 6.03z"/>
			<path class="s9" d="m1797.15 893.76c0 3.33-2.7 6.03-6.03 6.03-3.33 0-6.03-2.7-6.03-6.03 0-3.33 2.7-6.03 6.03-6.03 3.33 0 6.03 2.7 6.03 6.03z"/>
			<path class="s5" d="m1775.15 678.92c18.21 18.18 46.08 23.01 68.28 18 1.26-0.29 2.54-0.57 3.74-0.92 47.91-13.03 60.93-87.96 40.7-126.63-12.25-26.38-46.03-42.11-72.8-28.5-18.62 10.17-25.5 29.36-33.64 49.56-2.45 5.26-7.2 12.14-11.88 16.84-17.97 18.54-17.66 47.28 5.6 71.65z"/>
			<path class="s8" d="m1844.68 583.62c38.86 12.12 34.85 43.48 34.85 43.48l15.17-16.52-33.29-58.6-32.61-15.54c-8.1 1.11-15.46 4.56-21.7 9.9 0 0-1.29 25.16 37.58 37.28z"/>
			<path class="s14" d="m1789.02 649.44l29.23-15.37c2.89 17.82-15.58 29.44-29.23 15.37z"/>
			<path class="s15" d="m1810.85 609.38c-2.1-3.87 4.03-7.08 6.02-3.15 2.1 3.88-4.03 7.08-6.02 3.15z"/>
			<path class="s15" d="m1782.26 604.92c-2.1-3.88 4.03-7.08 6.01-3.15 2.1 3.88-4.03 7.08-6.01 3.15z"/>
			<path class="s15" d="m1789.04 650.72c0.73 0.08 29.15-15.33 29.81-15.51 0.62-0.33 0.86-1.11 0.53-1.74 0.19-3.27-30.31 15.22-30.96 14.83-1.18 0.57-0.68 2.49 0.62 2.42z"/>
			<path class="s15" d="m1793.4 634.31c1.6-0.18 4.96 0.09 4.57-2.21-0.22-0.67-0.95-1.03-1.62-0.81-4.31 1.59-14.83-1.29-9.84-4.42 7.24-4.03 11.96-17.87 12.16-18.46 0.55-1.56-1.92-2.41-2.43-0.82-0.05 0.13-4.61 13.48-10.98 17.03-7.79 5.62 1.92 9.68 8.14 9.69z"/>
			<path class="s4" d="m1815.08 540.87c5.5-35.33 87.03-95.5 142.99-3.2 39.79 72.88 148.03 152.77 52.87 194.16-36.09 6.71-7.38 40.81-30.76 58.46-23.38 17.65-55.02 1.51-56.1 43.19-1.08 41.68-27.37 51.51-56.25 49.45-28.88-2.06-63.3-79.65-30.37-106.77 32.94-27.12 4.74-48.45 20.27-84.1 15.52-35.66 33.41-43.31 33.41-43.31l-6.75-32.05c-1.22-41.69-71.29-37.3-69.31-75.83z"/>
			<path class="s5" d="m1910.96 633.36c-5.21 25.55-36.41 19.34-31.44-6.26 5.22-25.55 36.41-19.34 31.44 6.26z"/>
			<path class="s15" d="m1902.94 638.72c0.55 0 1.05-0.37 1.22-0.92 5.61-16.31-3.28-22.98-13.91-18.47-1.55 0.6-0.58 3.02 0.96 2.38 9.12-3.87 15.17 1.76 10.48 15.37-0.25 0.81 0.4 1.66 1.25 1.64z"/>
			<path class="s15" d="m1890.93 637.07c2.32-0.34 3.5-9.76 13.4-10.88 0.71-0.06 1.23-0.68 1.18-1.38-0.06-0.71-0.67-1.26-1.38-1.18-9.86 0.92-17.1 12.92-13.2 13.44z"/>
			<path class="s15" d="m1828.52 602.82c-0.45 0-0.9-0.19-1.21-0.57-6.15-7.56-16.27-9.03-16.37-9.04-0.84-0.12-1.42-0.89-1.31-1.73 0.11-0.84 0.87-1.41 1.72-1.31 0.47 0.06 11.41 1.62 18.34 10.15 0.54 0.65 0.44 1.62-0.22 2.15q-0.43 0.34-0.95 0.35z"/>
			<path class="s15" d="m1781.97 595.13c-0.48 0.01-0.95-0.21-1.26-0.62-0.5-0.69-0.35-1.64 0.33-2.14 0.3-0.23 7.55-5.44 17.85-3.07 0.83 0.19 1.34 1.01 1.15 1.84-0.19 0.82-1.01 1.34-1.84 1.15-8.89-2.04-15.28 2.51-15.34 2.55q-0.42 0.29-0.89 0.29z"/>
		</g>
		<g id="_x32_">
			<path class="s7" d="m1205.58 487.69c8.2-13.26 23.9-12.06 35.03-3.24 6.13-13.17 18.74-21.19 32.55-13.29 13.25 8.19 12.06 23.9 3.24 35.02 0 0-21.73 35.8-21.73 35.8l-35.79-21.73c-13.23-6.23-21.18-18.63-13.3-32.56z"/>
			<path class="s7" d="m1360.22 586.16c12.9-8.76 26.74-1.27 33.31 11.32 10.97-9.53 25.75-11.71 35.15 1.13 8.76 12.88 1.26 26.74-11.32 33.31 0 0-34.43 23.82-34.43 23.82l-23.84-34.42c-9.54-11.08-11.74-25.64 1.13-35.16z"/>
			<path class="s7" d="m1528.01 658.92c12.71-9.04 26.71-1.85 33.54 10.6 10.77-9.77 25.5-12.27 35.17 0.36 9.04 12.69 1.85 26.71-10.59 33.55 0 0-33.91 24.57-33.91 24.57l-24.58-33.91c-9.77-10.87-12.29-25.38 0.37-35.17z"/>
			<path class="s7" d="m1453.23 863.27c11.55-10.46 26.3-4.96 34.55 6.6 9.55-10.97 23.88-15.18 34.97-3.77 10.46 11.54 4.97 26.31-6.59 34.56 0.01 0-30.79 28.37-30.79 28.37l-28.38-30.78c-10.98-9.65-15.19-23.77-3.76-34.98z"/>
			<path class="s7" d="m1244.35 766.41c9.54-12.34 25.03-9.51 35.18 0.41 7.47-12.47 20.84-19.13 33.76-9.85 12.33 9.53 9.51 25.02-0.41 35.18 0 0-25.32 33.34-25.32 33.34l-33.36-25.31c-12.51-7.57-19.12-20.73-9.85-33.77z"/>
			<path class="s7" d="m1495.78 389.96c12.73-8.99 26.71-1.75 33.5 10.72 10.8-9.74 25.53-12.18 35.17 0.48 8.99 12.72 1.75 26.71-10.71 33.51 0 0-33.99 24.45-33.99 24.45l-24.46-33.98c-9.74-10.91-12.21-25.43 0.49-35.18z"/>
		</g>
		<g id="_x31_">
			<path class="s16" d="m503.07 1696.79h279.24c6.92 0 13.02-4.52 15.04-11.13l244.88-802.41c2.54-8.3-2.14-17.09-10.45-19.63-8.31-2.53-17.09 2.15-19.63 10.45l-241.48 791.27h-246.45l235.41-782.15c2.51-8.31-2.21-17.08-10.52-19.58-8.32-2.51-17.09 2.21-19.59 10.52l-241.51 802.41c-1.43 4.76-0.53 9.92 2.44 13.91 2.97 3.99 7.65 6.34 12.62 6.34z"/>
			<path fill-rule="evenodd" class="s17" d="m973.8 1783.71c-133.59 13.44-276.21-319.95-319.06-745.85-42.84-425.89 30.51-781.01 164.1-794.45 133.6-13.44 276.22 319.95 319.06 745.85 42.85 425.89-30.51 781.01-164.1 794.45z"/>
			<path class="s18" d="m1109.87 1401.91c-8.38 98.06-21.97 201.12-62.12 281.32-45.45 92.19-118.35 74.01-173.82-23.09v-0.01q-0.56-0.91-1.11-1.81c-130.68-245.1-166.89-565.49-175.44-853.02-5.67-701.54 262.18-674.3 378.9 0.53 33.09 188.74 48 413.24 33.59 596.08z"/>
			<path class="s4" d="m1040.92 635.4c-3.76 28.34-29.49 56.31-50.78 62.34-18.97 5.37-14.07 21.04-20.28 34.7q-0.12 0.26-0.24 0.52-0.76 1.59-1.74 3.12-1.33 2.08-3.19 4.04-0.34 0.36-0.71 0.7-0.86 0.84-1.83 1.64-0.28 0.23-0.57 0.46c-6.12 4.78-15.72 8.65-31.25 10.76-6.12 0.83-13.1 0.03-20.51-2.19q-2.4-0.71-4.86-1.63-1.26-0.46-2.54-0.98-0.05-0.02-0.11-0.04-3.08-1.26-6.2-2.79-4.04-1.98-8.14-4.4v-0.01q-2.2-1.29-4.39-2.71-4.03-2.6-8.03-5.6-3.94-2.94-7.8-6.25-2.3-1.95-4.55-4.02c-55.49-51.06-90.11-153.29 60.65-213.55q0 0 0.01-0.01c0.44-0.36 25.68-20.9 52.6 11.66 27.17 32.85 12.94 39.19 50.27 74.12q2.59 2.43 4.69 5.01 4.85 17.21 9.5 35.11z"/>
			<path class="s6" d="m1111.7 1112.91c-14.11-8.85-33.79-27.52-45.06-47.87v-0.01c-43.4-75.53-75.46-160.02-98.07-244.98 2.32-2.23 4.18-4.87 5.68-7.86 12.67-27.61-5.49-59.22-19.55-82.29 34.35 2.44 93.09 29.29 122.05 76.38 19.09 100.48 28.95 204.29 34.95 306.63z"/>
			<path class="s5" d="m898.49 722.97l-0.01 0.01c-23.17 36.67-39.75 96.53-66.5 134.24q0 0 0 0.01c-4.19 5.73-7.7 9.32-11.17 10.44-71.91 21.9-124.73 106.34-57.88 166.36 22.98 23.15 14.36 37.79-16.89 26.78-12.61-4.45-24.56-12.16-35.05-21.4 2.09-58.84-0.08-142.74-3.16-215.33 18.98-20.43 33.37-43.97 60.39-59.24 39.91-22.33 85.08-38.7 130.27-41.87z"/>
			<path class="s5" d="m989.02 1694.17c0 0-3.87-13.75-9.11-35.08q-0.01-0.01-0.01-0.02 0.01 0 0-0.01c-15.14-61.63-41.68-186.42-19.13-224.92q1.08-1.86 2.32-3.44c17.38-22.12 74.27-57.23 91.92-35.32 25.79 32.01 11.87 163.88 0.93 241.63-1.03 7.31-2.03 14.13-2.97 20.35q-0.01 0.08-0.02 0.12 0 0.01 0 0.01c-1.59 10.53-2.69 16.39-3.75 22.81-10.11 21.21-22.21 38.04-34.66 48.41-7.92 6.6-16.24 11.18-24.93 13.61 0.38-10.53 0.63-22.06 0.41-32.1-0.13-6.08-0.44-11.62-1-16.05z"/>
			<path class="s7" d="m987.68 1742.83c1.06-11.56 2.5-24.3 2.31-32.66q0 0 0.03 0.05c0.48 0.78 6.94 10.55 24.52 18.49-7.92 6.6-16.24 11.18-24.93 13.61q-0.96 0.29-1.93 0.51z"/>
			<path class="s5" d="m1036.44 1083.38c-278.23-14.55-192.88 62.22-189.6-155.3 5.87-69.79-40.03-176.7 51.66-205.11 2.82-20.44 0.67-57.39-3.37-75.59-8.72-32.53 43.75-45.38 50.89-12.26 1.76 6.19 5.06 40.4 6.06 70.09 0.29 11.6-1.84 23.35 7.85 31.26 89.72 93.99 73.75 225.1 76.51 346.9z"/>
			<path class="s8" d="m952.01 705.21c-10.77 2.23-33.19 5.17-52.29-3.28q-0.01-2.36-0.08-4.82c0.35-15.68-1.35-29.34-2.52-38.12-2.68-16.45-5.69-22.6 3.41-34.61 6.57-8.2 19.48-11.59 29.22-7.58 25.38 10.83 17.87 46.43 22.26 88.41z"/>
			<path class="s9" d="m1044.82 837.86c0 0 27.32 31.84 18.09 72.86-11.13 49.43-13.8 79.77-5.61 126.45 8.19 46.69-59.95 10.51-59.95 10.51z"/>
			<path class="s6" d="m811.99 1083.73c45.68 10.73 132.66-59.27 229.24-83.6 5.18-149.2 55.55-125.67-86.53-270.23 0 0 16.97 26.15 21.55 45.55 7.44 27.94-3.38 57.71-35.33 50.48-34.59-9.4-39.94-92-42.42-102.97-19.62 17.98-78.98 92.75-77.4 139.08-2.17 27.66 5.99 52.29 7.44 82.33 9.68 63.56-51.44 76.68-16.55 139.36z"/>
			<path class="s9" d="m828.54 944.37c0.57 6.83 1.25 13.02 0.88 18.67 3.61-11.07 5.3-25.07 2.57-40.34-6.43-35.89 0-65.49 0-65.49l-10.61 1.89q-0.17 1.45-0.28 2.94c-2.29 25.81 5.92 52.25 7.44 82.33z"/>
			<path class="s6" d="m898.5 722.96c-3.77 47.89-16.43 107.89-55.54 141.52-36.88 23.08-101.05 51.13-91.38 113.53 3.45 13.25 3.23 36.96-0.1 43.04-24.27 2.24-33.64 24-33.64 24q-2.74 1.35-6.12 1.45c-8.66-82.49-13.51-163.09-14.43-240.46 48.48-50.73 137.48-90.56 201.21-83.08z"/>
			<path class="s10" d="m1056.82 1636.71c-1.23 6.9-2.72 14.73-3.87 20.77-5.57 1.72-11.25 2.93-16.86 3.75-20.59 4.11-58.7-1.93-56.18-2.14q0-0.01-0.01-0.02c-14.77-29.76-19.46-63.24-24.45-95.89-15.88-109.15-10.96-234.26-23.94-346.29-1.47 80.53-24.31 328.93-57.02 444.24-33.61-47.73-53.37-110.15-77.07-181.32-7.21-21.1-14.64-42.17-19.83-64.14-7.47-142.36-56.98-300.54 44.28-420.12 72.86 16.32 147.63 27.5 219.36 4.58 0.49 0.91 7.84 15.08 16.07 37.04 9.88 26.61 17.68 54.43 21.16 84.83 22.94 205.55 14.86 334.11-21.64 514.71z"/>
			<path class="s11" d="m1057.3 1037.17c-1.43 0.57-78.48 30.22-258.99-6.96 11.15-24.43 22.83-36.14 22.83-36.14 105.69 27.42 220.09 6.05 220.09 6.05 0 0 13.73 21.51 16.07 37.05z"/>
			<path class="s11" d="m830.9 1015.49q-6.5 8.73-11.91 18.78-5.14 9.5-9.38 20.03-2.62 6.5-4.93 13.34c-2.49 7.39-4.71 15.07-6.67 22.96q-0.15 0.64-0.31 1.28-1.51 6.2-2.82 12.58c-15.72 76.5-9.84 170.08 0.75 235.13 2.9 24.13 5.16 42.82 5.38 63.29 0.11 10.36-0.29 21.17-1.4 33.37-1.23 13.6-0.91 31.93-1.15 47.19 0 0-4.42-12.67-5.85-17.87 0.43-18.5 1.02-37.48 0.93-55.49-0.13-24.28-1.18-47.8-4.33-69.72-10.9-66.89-16.61-162.2-0.09-239.83 3.3-15.53 7.5-30.36 12.71-44.1q1.04-2.73 2.14-5.4 3.82-9.41 8.36-18.03c4.01-7.61 8.44-14.73 13.32-21.26 2.36-3.27 7.74 0.25 5.25 3.75z"/>
			<path class="s11" d="m880.95 1635.81c-2.9 13.41-6.46 25.32-6.46 25.32 0 0-7.32-9.53-13.22-20.67 5.22-1.02 12.63-2.12 17.96-4.02q0.86-0.3 1.72-0.63z"/>
			<path class="s11" d="m986.25 1640.19q0 0 0 0c-12.25-32.39-28.67-190.79-25.16-231.03 3.51-40.26 2.34-121 0-157.21-2.33-36.23-29.58-35.06-29.58-35.06 12.72 72.32 5.31 338.47 43.81 432.4 1.54 3.95 3.07 7.25 4.6 9.8 0 0 38.7 9.03 73.03-1.6 0 0 1.5-7.68 3.88-20.78-27.84 9.73-54.51 6.93-70.58 3.48z"/>
			<path class="s11" d="m931.52 1220.13c-3.01 0.11-4.45-4.14-1.9-5.85 0.21-0.16 21.86-16.25 26.88-47.26 0.28-1.77 1.94-2.96 3.7-2.68 1.76 0.29 2.96 1.95 2.68 3.71-6.41 35.24-27.89 51.05-31.36 52.07z"/>
			<path class="s12" d="m985.4 1049.5l-41.88 2.03c-6.96 0.33-12.88-5.04-13.21-12 0.18-10.64-6.05-33.5 10.98-34.24 0 0 41.88-2.03 41.88-2.03 6.96-0.34 12.88 5.04 13.21 12-0.18 10.64 6.05 33.5-10.98 34.24z"/>
			<path class="s5" d="m792.13 1042.36c8.76 7.8 19.85 13.13 19.87 13.21 14.02 3.82 28.23 6.88 42.58 9.29 4.62 0.67 3.91 7.94-0.81 7.64-14.18-0.62-28.38-1.85-42.46-3.8q-0.03 0.1-0.07 0.2c13.53 6.98 27.47 13.22 41.84 18.26 15.47 18.37-43.61-6.13-48.31-7.8q-0.04 0.04-0.08 0.08c11.62 8.71 24.31 16.01 37.61 21.86 13.26 19.86-43.73-9.61-48.03-12.99q-0.07 0.05-0.14 0.1c8.12 8.17 17.29 15.3 26.74 21.9 9.8 20.24-36.08-12.23-39.64-15.75-3.99-1.14-24.23-15.78-40.63-35.89-5.38-6.59 12.12-23.42 20.36-24.85 14.4-2.05 23.56-0.55 35.54-0.35z"/>
			<path class="s9" d="m812.42 734.82c8.74 14.42 24.04 30.86 38.66 46.81 10.26 11.22 20.2 22.16 27.27 32 4.95 6.87 8.5 13.22 9.77 18.67 6.9 29.68 46.94 31.06 54.54 22.08 7.26-8.56 15.75-17.76 31.38-13.77q1.09 0.28 2.23 0.65c17.07 5.53 28.49-19.32 21.09-31.06-7.42-11.72-10.54-22.77-4.91-40.08 5.64-17.31-23.49-37.59-23.92-37.97-8.58-1.85-13.83-2.25-13.83-2.25 0 0 14.59 25.28 19.18 44.68 4.6 17.25 3.94 33.95-5.96 43.48-6.2 5.98-14.65 8.49-26.91 5.69-34.59-9.4-40.03-89.82-42.51-100.79 0 0-30.12-6.65-86.08 11.86z"/>
			<path class="s9" d="m754.21 1003.81c-0.26 11.48-2.73 17.24-2.73 17.24-24.27 2.25-33.65 24-33.64 24q-2.75 1.35-6.12 1.45c-0.63-6.03-1.26-12.1-1.84-18.14q1.26-0.51 2.63-0.97c19.46-4.08 18.92-34.19 41.7-23.58z"/>
			<path class="s9" d="m959.56 868.01c0 3.33 2.7 6.03 6.03 6.03 3.33 0 6.03-2.7 6.03-6.03 0-3.33-2.7-6.03-6.03-6.03-3.33 0-6.03 2.7-6.03 6.03z"/>
			<path class="s9" d="m961.77 893.76c0 3.33 2.7 6.03 6.03 6.03 3.33 0 6.03-2.7 6.03-6.03 0-3.33-2.7-6.03-6.03-6.03-3.33 0-6.03 2.7-6.03 6.03z"/>
			<path class="s5" d="m983.77 678.92c-18.22 18.18-46.08 23.01-68.28 18-1.26-0.29-2.54-0.57-3.74-0.92-47.91-13.03-60.93-87.96-40.7-126.63 12.25-26.38 46.03-42.11 72.8-28.5 18.62 10.17 25.5 29.36 33.64 49.56 2.45 5.26 7.2 12.14 11.88 16.84 17.97 18.54 17.66 47.28-5.6 71.65z"/>
			<path class="s8" d="m914.24 583.62c-38.86 12.12-34.85 43.48-34.85 43.48l-15.17-16.52 33.29-58.6 32.61-15.54c8.1 1.11 15.46 4.56 21.7 9.9 0 0 1.29 25.16-37.58 37.28z"/>
			<path class="s14" d="m969.9 649.44l-29.23-15.37c-2.89 17.82 15.58 29.44 29.23 15.37z"/>
			<path class="s15" d="m948.07 609.38c2.1-3.87-4.04-7.08-6.02-3.15-2.1 3.88 4.03 7.08 6.02 3.15z"/>
			<path class="s15" d="m976.66 604.92c2.1-3.88-4.03-7.08-6.01-3.15-2.1 3.88 4.03 7.08 6.01 3.15z"/>
			<path class="s15" d="m969.88 650.72c-0.73 0.08-29.15-15.33-29.81-15.51-0.62-0.33-0.87-1.11-0.54-1.74-0.18-3.27 30.32 15.22 30.97 14.83 1.18 0.57 0.68 2.49-0.62 2.42z"/>
			<path class="s15" d="m965.52 634.31c-1.61-0.18-4.97 0.09-4.57-2.21 0.22-0.67 0.95-1.03 1.62-0.81 4.31 1.59 14.83-1.29 9.83-4.42-7.23-4.03-11.96-17.87-12.15-18.46-0.56-1.56 1.92-2.41 2.43-0.82 0.05 0.13 4.61 13.48 10.97 17.03 7.8 5.62-1.92 9.68-8.13 9.69z"/>
			<path class="s4" d="m943.84 540.87c-5.5-35.33-87.03-95.5-142.99-3.2-39.79 72.88-148.03 152.77-52.87 194.16 36.09 6.71 7.38 40.81 30.76 58.46 23.38 17.65 55.01 1.51 56.1 43.19 1.08 41.68 27.37 51.51 56.25 49.45 28.88-2.06 63.3-79.65 30.37-106.77-32.94-27.12-4.74-48.45-20.27-84.1-15.52-35.66-33.41-43.31-33.41-43.31l6.75-32.05c1.22-41.69 71.29-37.3 69.31-75.83z"/>
			<path class="s5" d="m847.95 633.36c5.22 25.55 36.41 19.34 31.44-6.26-5.21-25.55-36.4-19.34-31.44 6.26z"/>
			<path class="s15" d="m855.98 638.72c-0.55 0-1.05-0.37-1.22-0.92-5.61-16.31 3.28-22.98 13.91-18.47 1.55 0.6 0.57 3.02-0.96 2.38-9.12-3.87-15.17 1.76-10.48 15.37 0.25 0.81-0.4 1.66-1.25 1.64z"/>
			<path class="s15" d="m867.99 637.07c-2.32-0.34-3.5-9.76-13.4-10.88-0.71-0.06-1.23-0.68-1.18-1.38 0.06-0.71 0.67-1.26 1.38-1.18 9.86 0.92 17.1 12.92 13.2 13.44z"/>
			<path class="s15" d="m930.4 602.82c0.45 0 0.9-0.19 1.21-0.57 6.15-7.56 16.27-9.03 16.37-9.04 0.84-0.12 1.42-0.89 1.31-1.73-0.11-0.84-0.87-1.41-1.72-1.31-0.47 0.06-11.41 1.62-18.34 10.15-0.54 0.65-0.44 1.62 0.22 2.15q0.43 0.34 0.95 0.35z"/>
			<path class="s15" d="m976.95 595.13c0.48 0.01 0.95-0.21 1.26-0.62 0.49-0.69 0.35-1.64-0.33-2.14-0.3-0.23-7.55-5.44-17.85-3.07-0.83 0.19-1.34 1.01-1.16 1.84 0.19 0.82 1.01 1.34 1.84 1.15 8.9-2.04 15.29 2.51 15.35 2.55q0.42 0.29 0.89 0.29z"/>
			<path class="s19" d="m698.85 695.45l412.36 706.46c9.09-117.55 3.57-268.22-8.38-406.71-1.82-21.02-6.72-62.56-6.39-62l-336.31-576.16c-33.84 71.09-55.42 190.98-61.28 338.41z"/>
			<path class="s19" d="m697.53 815.06c1.09 69.71 5.33 143.61 13 219.91q0.09 0.96 0.2 1.93l354.98 608.14c14.12-37.95 25.56-85.62 34-140.96z"/>
		</g>
	</g>
</svg>