<svg xmlns="http://www.w3.org/2000/svg" xmlns:xlink="http://www.w3.org/1999/xlink" width="500" zoomAndPan="magnify" viewBox="0 0 375 374.999991" height="500" preserveAspectRatio="xMidYMid meet" version="1.0"><path fill="#005ebc" d="M 293.863281 118.734375 C 293.058594 150.117188 270.027344 153.085938 270.027344 153.085938 C 271.664062 226.957031 207.253906 254.292969 207.253906 254.292969 C 207.253906 254.292969 210.503906 285.675781 222.15625 306.210938 C 233.8125 326.800781 250.851562 356.828125 250.851562 356.828125 L 111.765625 356.828125 C 111.765625 356.828125 113.933594 324.636719 105.273438 290.53125 C 96.617188 256.457031 77.109375 268.082031 59.265625 268.082031 C 41.421875 268.082031 24.105469 269.71875 17.890625 257.511719 C 11.644531 245.355469 19.5 240.472656 21.664062 235.894531 C 23.855469 231.285156 21.136719 231.5625 18.695312 229.371094 C 16.253906 227.234375 11.117188 225.347656 13.28125 219.660156 C 15.449219 213.972656 18.972656 213.691406 18.972656 213.691406 C 15.199219 211 12.199219 210.722656 11.644531 205.3125 C 11.117188 199.902344 14.085938 201.511719 16.53125 196.65625 C 18.972656 191.769531 15.199219 187.441406 11.921875 183.667969 C 8.675781 179.894531 0.296875 176.34375 3.515625 169.597656 C 6.789062 162.828125 15.199219 159.332031 25.992188 146.871094 C 36.816406 134.4375 33.289062 134.964844 33.84375 126.308594 C 34.371094 117.652344 36.816406 110.324219 36.816406 110.324219 C 43.335938 87.207031 67.671875 65.703125 67.671875 65.703125 C 67.394531 47.554688 86.902344 29.101562 128.554688 21.859375 C 187.800781 11.589844 225.402344 36.480469 225.402344 36.480469 C 235.671875 18.886719 249.742188 26.742188 249.742188 26.742188 C 261.117188 15.640625 271.941406 32.679688 271.941406 32.679688 C 294.445312 38.480469 309.570312 59.429688 314.8125 79.9375 C 315.683594 83.34375 316.277344 86.710938 316.589844 90.039062 C 318.753906 113.347656 293.863281 118.734375 293.863281 118.734375 Z M 293.863281 118.734375 " fill-opacity="1" fill-rule="nonzero"/><path fill="#ffffff" d="M 293.863281 118.734375 C 293.058594 150.117188 270.027344 153.085938 270.027344 153.085938 C 271.664062 226.957031 207.253906 254.292969 207.253906 254.292969 C 207.253906 254.292969 210.503906 285.675781 222.15625 306.210938 C 233.8125 326.800781 250.851562 356.828125 250.851562 356.828125 L 152.808594 356.828125 L 156.75 349.917969 C 156.75 349.917969 170.929688 324.941406 180.585938 307.847656 C 185.25 299.578125 188.246094 287.8125 189.828125 279.183594 C 173.398438 269.164062 142.070312 244.023438 139.101562 196.933594 C 131.136719 192.242188 122.949219 183.5 120.148438 168.738281 C 109.660156 163.300781 98.53125 152.253906 100.277344 133.605469 C 102.386719 110.714844 117.679688 84.183594 143.042969 75.082031 C 146.953125 70.699219 153.808594 65.0625 163.078125 65.0625 C 165.546875 65.0625 168.710938 65.507812 172.125 67.035156 C 173.363281 66.867188 174.675781 66.777344 176.0625 66.757812 C 180.253906 66.757812 186.914062 67.726562 193.4375 72.863281 C 204.3125 68.117188 222.878906 62.066406 247.019531 62.066406 C 255.566406 62.066406 264.363281 62.84375 273.078125 64.34375 C 291.449219 67.535156 305.101562 73.140625 314.8125 79.9375 C 315.683594 83.34375 316.277344 86.710938 316.589844 90.039062 C 318.753906 113.347656 293.863281 118.734375 293.863281 118.734375 Z M 293.863281 118.734375 " fill-opacity="1" fill-rule="nonzero"/><path fill="#0d6efd" d="M 321.308594 114.625 C 321.308594 114.625 341.566406 132.523438 346.976562 151.78125 C 346.976562 151.78125 349.003906 157.859375 349.445312 165.046875 C 349.890625 172.261719 346.976562 171.789062 355.96875 182.167969 C 364.988281 192.519531 371.953125 195.433594 374.644531 201.066406 C 377.363281 206.699219 370.371094 209.613281 367.679688 212.777344 C 364.988281 215.914062 361.824219 219.519531 363.847656 223.574219 C 365.875 227.625 368.34375 226.292969 367.898438 230.789062 C 367.457031 235.28125 364.988281 235.503906 361.824219 237.753906 C 361.824219 237.753906 364.765625 237.972656 366.539062 242.71875 C 368.34375 247.4375 364.070312 249.019531 362.042969 250.824219 C 360.019531 252.625 357.769531 252.40625 359.574219 256.207031 C 361.378906 260.035156 367.898438 264.085938 362.710938 274.214844 C 357.550781 284.34375 343.148438 283.011719 328.273438 283.011719 C 313.425781 283.011719 297.222656 273.328125 290.035156 301.6875 C 282.820312 330.050781 284.621094 356.828125 284.621094 356.828125 L 168.933594 356.828125 C 168.933594 356.828125 183.113281 331.851562 192.769531 314.730469 C 202.453125 297.636719 205.144531 271.523438 205.144531 271.523438 C 205.144531 271.523438 151.589844 248.796875 152.949219 187.332031 C 152.949219 187.332031 133.800781 184.859375 133.136719 158.75 C 133.136719 158.75 112.433594 154.253906 114.210938 134.882812 C 116.011719 115.542969 129.527344 92.8125 151.367188 87.179688 C 151.367188 87.179688 160.359375 73 169.820312 82.214844 C 169.820312 82.214844 181.53125 75.691406 190.078125 90.316406 C 190.078125 90.316406 221.351562 69.617188 270.664062 78.164062 C 305.296875 84.183594 321.53125 99.558594 321.308594 114.625 Z M 321.308594 114.625 " fill-opacity="1" fill-rule="nonzero"/><path fill="#ffffff" d="M 265.640625 155.585938 C 265.640625 144.011719 256.261719 134.632812 244.691406 134.632812 C 233.117188 134.632812 223.738281 144.011719 223.738281 155.585938 C 223.738281 163.328125 227.929688 170.042969 234.144531 173.679688 L 227.042969 225.015625 L 262.339844 225.015625 L 255.234375 173.679688 C 261.449219 170.042969 265.640625 163.328125 265.640625 155.585938 Z M 265.640625 155.585938 " fill-opacity="1" fill-rule="nonzero"/></svg>